<svg id="Layer_1" data-name="Layer 1" xmlns="http://www.w3.org/2000/svg" viewBox="0 0 112 46.16"><g id="logo"><rect id="Rectangle_2263" data-name="Rectangle 2263" x="66.31" width="45.69" height="45.69" style="fill:#fff"/><g id="Group_37932" data-name="Group 37932"><g id="Group_37931" data-name="Group 37931"><g id="Group_37930" data-name="Group 37930"><path id="Path_51202" data-name="Path 51202" d="M247.85,154a6.77,6.77,0,0,1,2.05.28,3.9,3.9,0,0,1,1.42.79,3.11,3.11,0,0,1,.82,1.17,4.24,4.24,0,0,1,.26,1.46,4.6,4.6,0,0,1-.27,1.55,3.16,3.16,0,0,1-.83,1.21,3.82,3.82,0,0,1-1.42.79,6.64,6.64,0,0,1-2,.28h-1.37v3.78h-2.62V154Zm0,5.55a1.85,1.85,0,0,0,1.47-.49,2.3,2.3,0,0,0,.34-2.07,1.45,1.45,0,0,0-.95-.9,2.53,2.53,0,0,0-.86-.13h-1.37v3.59Z" transform="translate(-243.14 -126.58)" style="fill:#fff"/><path id="Path_51203" data-name="Path 51203" d="M264.24,165.28h-2.38a1,1,0,0,1-.95-.5L259,161.49a.78.78,0,0,0-.77-.4h-.67v4.19H255V154h3.68a7.34,7.34,0,0,1,2.09.25,3.78,3.78,0,0,1,1.42.7A2.63,2.63,0,0,1,263,156a3.35,3.35,0,0,1,.25,1.33,4.07,4.07,0,0,1-.14,1,3.33,3.33,0,0,1-.44.91,3.56,3.56,0,0,1-.71.74,3.76,3.76,0,0,1-1,.54,2.34,2.34,0,0,1,.49.33,2.61,2.61,0,0,1,.4.47Zm-5.58-6a2.55,2.55,0,0,0,.91-.14,1.65,1.65,0,0,0,.62-.38,1.47,1.47,0,0,0,.35-.55,2.38,2.38,0,0,0,.11-.7,1.48,1.48,0,0,0-.48-1.16,2.26,2.26,0,0,0-1.5-.43H257.6v3.36Z" transform="translate(-243.14 -126.58)" style="fill:#fff"/><path id="Path_51204" data-name="Path 51204" d="M277.34,159.61a6,6,0,0,1-.42,2.29,5.41,5.41,0,0,1-3,3.06,6.89,6.89,0,0,1-4.82,0A5.4,5.4,0,0,1,266,161.9a6.43,6.43,0,0,1,0-4.57,5.36,5.36,0,0,1,3.05-3.05,6.65,6.65,0,0,1,2.41-.45,6.4,6.4,0,0,1,2.41.45,5.73,5.73,0,0,1,1.85,1.22,5.45,5.45,0,0,1,1.19,1.84A5.86,5.86,0,0,1,277.34,159.61Zm-2.68,0a5.16,5.16,0,0,0-.22-1.51,3.2,3.2,0,0,0-.63-1.14,2.65,2.65,0,0,0-1-.71,3.81,3.81,0,0,0-2.7,0,2.82,2.82,0,0,0-1,.71,3.33,3.33,0,0,0-.62,1.14,5.39,5.39,0,0,0,0,3,3.24,3.24,0,0,0,.62,1.14,2.7,2.7,0,0,0,1,.71,3.81,3.81,0,0,0,2.7,0,2.65,2.65,0,0,0,1-.71,3.11,3.11,0,0,0,.63-1.14,5.18,5.18,0,0,0,.22-1.52Z" transform="translate(-243.14 -126.58)" style="fill:#fff"/><path id="Path_51205" data-name="Path 51205" d="M282.78,156v2.86h3.86v2h-3.86v4.41h-2.64V154h7.28v2Z" transform="translate(-243.14 -126.58)" style="fill:#fff"/><path id="Path_51206" data-name="Path 51206" d="M292.82,165.28h-2.64V154h2.64Z" transform="translate(-243.14 -126.58)" style="fill:#fff"/><path id="Path_51207" data-name="Path 51207" d="M304.38,156H301.2v9.24h-2.63V156h-3.18V154h9Z" transform="translate(-243.14 -126.58)" style="fill:#fff"/></g></g></g><g id="Group_37935" data-name="Group 37935"><g id="Group_37934" data-name="Group 37934"><g id="Group_37933" data-name="Group 37933"><path id="Path_51208" data-name="Path 51208" d="M324.57,162.35l.18,0a.57.57,0,0,1,.18.12l1,1.1a4.27,4.27,0,0,1-1.71,1.35,6,6,0,0,1-2.43.45,6.12,6.12,0,0,1-2.32-.43,5.13,5.13,0,0,1-1.73-1.22,5.4,5.4,0,0,1-1.09-1.83,6.71,6.71,0,0,1-.38-2.31,6.34,6.34,0,0,1,.41-2.32,5.33,5.33,0,0,1,1.16-1.83,5.14,5.14,0,0,1,1.78-1.2,6.44,6.44,0,0,1,3.5-.32,7.46,7.46,0,0,1,1,.31,5,5,0,0,1,1.64,1.09l-.89,1.19-.2.2a.54.54,0,0,1-.33.08.48.48,0,0,1-.26-.06,1.82,1.82,0,0,1-.27-.15l-.3-.2a2.46,2.46,0,0,0-.4-.19,3.21,3.21,0,0,0-.53-.15A4.37,4.37,0,0,0,322,156a2.77,2.77,0,0,0-1.2.24,2.57,2.57,0,0,0-.93.7,3.2,3.2,0,0,0-.6,1.14,4.91,4.91,0,0,0-.22,1.52,4.53,4.53,0,0,0,.24,1.55,3.29,3.29,0,0,0,.64,1.14,2.82,2.82,0,0,0,2.12,1c.22,0,.44,0,.65,0a3.35,3.35,0,0,0,.55-.11,3.06,3.06,0,0,0,.49-.22,3,3,0,0,0,.45-.35,1.37,1.37,0,0,1,.2-.13A.45.45,0,0,1,324.57,162.35Z" transform="translate(-243.14 -126.58)" style="fill:#0b9373"/><path id="Path_51209" data-name="Path 51209" d="M338.52,165.28h-2a.89.89,0,0,1-.55-.16,1.07,1.07,0,0,1-.32-.41l-.67-2h-4.3l-.67,2a1,1,0,0,1-.31.39.81.81,0,0,1-.54.17h-2.05L331.45,154h2.69ZM334.35,161l-1.05-3.1c-.08-.2-.16-.43-.25-.7s-.18-.55-.27-.87a7.9,7.9,0,0,1-.24.88c-.09.27-.18.5-.25.7l-1,3.09Z" transform="translate(-243.14 -126.58)" style="fill:#0b9373"/><path id="Path_51210" data-name="Path 51210" d="M349.91,165.28h-2.38a1,1,0,0,1-.94-.5l-1.88-3.29a.75.75,0,0,0-.76-.4h-.67v4.19h-2.63V154h3.68a7.41,7.41,0,0,1,2.1.25,3.78,3.78,0,0,1,1.42.7,2.63,2.63,0,0,1,.79,1.07,3.35,3.35,0,0,1,.25,1.33,3.68,3.68,0,0,1-.15,1,3,3,0,0,1-.43.91,3.56,3.56,0,0,1-.71.74,3.76,3.76,0,0,1-1,.54,2.34,2.34,0,0,1,.49.33,2.61,2.61,0,0,1,.4.47Zm-5.57-6a2.62,2.62,0,0,0,.91-.14,1.49,1.49,0,0,0,.62-.38,1.57,1.57,0,0,0,.35-.55,2.08,2.08,0,0,0,.1-.7,1.42,1.42,0,0,0-.48-1.16,2.27,2.27,0,0,0-1.51-.43h-1.05v3.36Z" transform="translate(-243.14 -126.58)" style="fill:#0b9373"/></g></g></g><g id="Group_37936" data-name="Group 37936"><path id="Path_51211" data-name="Path 51211" d="M244.09,169.05a1.93,1.93,0,0,1,.47,0,1,1,0,0,1,.32.15.67.67,0,0,1,.19.25.87.87,0,0,1,.06.32.66.66,0,0,1,0,.21,1.14,1.14,0,0,1-.1.19.93.93,0,0,1-.18.16,1.12,1.12,0,0,1-.25.11.86.86,0,0,1,.5.23.61.61,0,0,1,.16.45,1,1,0,0,1-.06.34.79.79,0,0,1-.2.27,1.06,1.06,0,0,1-.33.18,1.74,1.74,0,0,1-.45.06h-1.05v-3Zm-.55.32v1h.53a.92.92,0,0,0,.29,0,.68.68,0,0,0,.21-.1.3.3,0,0,0,.12-.17.45.45,0,0,0,0-.2.43.43,0,0,0-.15-.38.72.72,0,0,0-.49-.12Zm.64,2.33a1,1,0,0,0,.3,0,.56.56,0,0,0,.2-.11.52.52,0,0,0,.12-.17.54.54,0,0,0,0-.22.48.48,0,0,0-.16-.36.81.81,0,0,0-.5-.14h-.64v1Z" transform="translate(-243.14 -126.58)" style="fill:#fff"/><path id="Path_51212" data-name="Path 51212" d="M247.17,170.33a1.24,1.24,0,0,1,.47.06.88.88,0,0,1,.32.16.76.76,0,0,1,.19.25,1,1,0,0,1,.06.32.77.77,0,0,1-.07.37.63.63,0,0,1-.2.28.72.72,0,0,1-.33.18,1.31,1.31,0,0,1-.44.07h-1v-3h.4v1.28Zm0,1.37a1,1,0,0,0,.3,0,.56.56,0,0,0,.2-.11.39.39,0,0,0,.11-.17.66.66,0,0,0,0-.44.36.36,0,0,0-.11-.16.54.54,0,0,0-.2-.1,1.36,1.36,0,0,0-.29,0h-.59v1Zm2,.32h-.4v-3h.4Z" transform="translate(-243.14 -126.58)" style="fill:#fff"/><path id="Path_51213" data-name="Path 51213" d="M252.66,172h-.37a.21.21,0,0,1-.1,0,.36.36,0,0,1-.08-.09l-.78-1.09a.57.57,0,0,0-.11-.11.47.47,0,0,0-.17,0h-.36V172h-.4v-3h.4v1.3H251a.45.45,0,0,0,.16,0,.32.32,0,0,0,.12-.11l.79-1.05a.18.18,0,0,1,.07-.08.19.19,0,0,1,.1,0h.34l-.9,1.22a.52.52,0,0,1-.26.2.48.48,0,0,1,.19.09.49.49,0,0,1,.14.18Z" transform="translate(-243.14 -126.58)" style="fill:#fff"/><path id="Path_51214" data-name="Path 51214" d="M255.66,169.05l-1.21,2.58a.86.86,0,0,1-.13.2.33.33,0,0,1-.14.12.33.33,0,0,1-.16.07.55.55,0,0,1-.18,0,.47.47,0,0,1-.17,0s-.06,0-.06-.06v-.25h.24l.11,0a.6.6,0,0,0,.08-.08.42.42,0,0,0,.08-.12l.15-.3-1.19-2.1h.37a.11.11,0,0,1,.08,0,.2.2,0,0,1,.06.07l.73,1.35a2.08,2.08,0,0,1,.13.3.44.44,0,0,1,.05-.15l.06-.15.62-1.35,0-.07.09,0Z" transform="translate(-243.14 -126.58)" style="fill:#fff"/><path id="Path_51215" data-name="Path 51215" d="M258.7,172h-.41v-2.65h-1.48V172h-.4v-3h2.29Z" transform="translate(-243.14 -126.58)" style="fill:#fff"/><path id="Path_51216" data-name="Path 51216" d="M263.66,169.05v3h-.4v-2.3a1.5,1.5,0,0,1,0-.2l-.07.18a.73.73,0,0,1-.09.13l-1.38,2.06-.08.09a.21.21,0,0,1-.1,0h-.3v-3h.4v2.29c0,.07,0,.14,0,.21a.53.53,0,0,1,.08-.17,1,1,0,0,1,.07-.15l1.39-2a.36.36,0,0,1,.08-.09.15.15,0,0,1,.11,0Z" transform="translate(-243.14 -126.58)" style="fill:#fff"/><path id="Path_51217" data-name="Path 51217" d="M268.52,172h-.4v-2.65h-1.49V172h-.4v-3h2.29Z" transform="translate(-243.14 -126.58)" style="fill:#fff"/><path id="Path_51218" data-name="Path 51218" d="M270.52,169.05a2.07,2.07,0,0,1,.5.06,1,1,0,0,1,.34.19.72.72,0,0,1,.2.29,1,1,0,0,1,.07.38,1,1,0,0,1-.28.68,1.19,1.19,0,0,1-.35.19,1.33,1.33,0,0,1-.48.07h-.47V172h-.4v-3Zm0,1.54a1.06,1.06,0,0,0,.31-.05.61.61,0,0,0,.22-.13.52.52,0,0,0,.14-.19.75.75,0,0,0,0-.26.55.55,0,0,0-.18-.44.83.83,0,0,0-.53-.16h-.47v1.22Z" transform="translate(-243.14 -126.58)" style="fill:#fff"/><path id="Path_51219" data-name="Path 51219" d="M275.25,170.53a1.66,1.66,0,0,1-.11.62,1.18,1.18,0,0,1-.3.47,1.23,1.23,0,0,1-.46.32,1.73,1.73,0,0,1-.6.11,1.77,1.77,0,0,1-.6-.11,1.32,1.32,0,0,1-.46-.32,1.3,1.3,0,0,1-.3-.47,1.85,1.85,0,0,1,0-1.23,1.29,1.29,0,0,1,.76-.79,1.52,1.52,0,0,1,.6-.11,1.56,1.56,0,0,1,.6.11,1.35,1.35,0,0,1,.76.79A1.83,1.83,0,0,1,275.25,170.53Zm-.41,0a1.67,1.67,0,0,0-.08-.49,1,1,0,0,0-.21-.37,1.14,1.14,0,0,0-.33-.23,1.05,1.05,0,0,0-.43-.07.95.95,0,0,0-.77.3,1.14,1.14,0,0,0-.21.37,1.67,1.67,0,0,0-.08.49,1.33,1.33,0,0,0,.08.49,1,1,0,0,0,.21.37.94.94,0,0,0,.33.23,1.32,1.32,0,0,0,.44.08,1.26,1.26,0,0,0,.43-.08.86.86,0,0,0,.33-.23.91.91,0,0,0,.21-.37,1.57,1.57,0,0,0,.08-.49Z" transform="translate(-243.14 -126.58)" style="fill:#fff"/><path id="Path_51220" data-name="Path 51220" d="M278.85,171.7v.92a.16.16,0,0,1,0,.09.17.17,0,0,1-.1,0h-.24V172h-2.39v.6a.11.11,0,0,1,0,.08.13.13,0,0,1-.1,0h-.24v-1h.3a.32.32,0,0,0,.13-.1.76.76,0,0,0,.12-.19,2.19,2.19,0,0,0,.12-.33,4,4,0,0,0,.09-.48c0-.19,0-.41.08-.67s0-.55,0-.88h1.76v2.65Zm-.89,0v-2.33h-1c0,.34,0,.63-.07.88a4.93,4.93,0,0,1-.11.67,2.54,2.54,0,0,1-.14.47,1.51,1.51,0,0,1-.16.31Z" transform="translate(-243.14 -126.58)" style="fill:#fff"/><path id="Path_51221" data-name="Path 51221" d="M282.13,172h-.31l-.09,0a.18.18,0,0,1-.05-.07l-.28-.71h-1.33l-.27.71-.05.07a.17.17,0,0,1-.1,0h-.3l1.18-3h.41Zm-.84-1.1-.47-1.21,0-.13c0-.05,0-.1,0-.16a2.57,2.57,0,0,1-.09.29l-.47,1.21Z" transform="translate(-243.14 -126.58)" style="fill:#fff"/><path id="Path_51222" data-name="Path 51222" d="M286.77,172h-.26a.42.42,0,0,1-.16,0,.47.47,0,0,1-.1-.1l-.75-1.06a.37.37,0,0,0-.13-.12.37.37,0,0,0-.18,0h-.34V172h-.38v-1.36h-.34a.58.58,0,0,0-.19,0,.37.37,0,0,0-.12.13l-.76,1.05a.26.26,0,0,1-.25.14h-.27l.89-1.28a.46.46,0,0,1,.14-.17.4.4,0,0,1,.18-.1.38.38,0,0,1-.15-.09.53.53,0,0,1-.12-.14l-.87-1.19h.32a.2.2,0,0,1,.11,0l.09.09.74,1a.3.3,0,0,0,.14.11.32.32,0,0,0,.16,0h.3v-1.3h.38v1.3h.3a.29.29,0,0,0,.16,0,.38.38,0,0,0,.14-.11l.74-1,.09-.09.12,0h.31l-.86,1.19a.86.86,0,0,1-.13.14.38.38,0,0,1-.15.09.4.4,0,0,1,.18.1.61.61,0,0,1,.15.17Z" transform="translate(-243.14 -126.58)" style="fill:#fff"/><path id="Path_51223" data-name="Path 51223" d="M290,172h-.31a.16.16,0,0,1-.09,0,.18.18,0,0,1-.05-.07l-.27-.71h-1.33l-.28.71-.05.07-.09,0h-.31l1.18-3h.41Zm-.84-1.1-.46-1.21-.05-.13a.75.75,0,0,1,0-.16,1.4,1.4,0,0,1-.09.29l-.46,1.21Z" transform="translate(-243.14 -126.58)" style="fill:#fff"/><path id="Path_51224" data-name="Path 51224" d="M294.57,172h-.31a.11.11,0,0,1-.08,0,.12.12,0,0,1-.05-.07l-.28-.71h-1.33l-.28.71a.18.18,0,0,1-.05.07.14.14,0,0,1-.09,0h-.31l1.19-3h.41Zm-.83-1.1-.47-1.21,0-.13c0-.05,0-.1-.05-.16a2.45,2.45,0,0,1-.08.29l-.47,1.21Z" transform="translate(-243.14 -126.58)" style="fill:#fff"/><path id="Path_51225" data-name="Path 51225" d="M296.28,169.05a1.83,1.83,0,0,1,.47,0,1,1,0,0,1,.33.15.64.64,0,0,1,.18.25.71.71,0,0,1,.07.32.65.65,0,0,1,0,.21.69.69,0,0,1-.1.19,1.29,1.29,0,0,1-.17.16,1.12,1.12,0,0,1-.25.11.83.83,0,0,1,.49.23.62.62,0,0,1,.17.45,1,1,0,0,1-.07.34.68.68,0,0,1-.2.27,1.06,1.06,0,0,1-.33.18,1.61,1.61,0,0,1-.44.06h-1.05v-3Zm-.55.32v1h.54a1,1,0,0,0,.29,0,1,1,0,0,0,.21-.1.48.48,0,0,0,.12-.16.79.79,0,0,0,0-.2.48.48,0,0,0-.16-.39.77.77,0,0,0-.49-.12Zm.64,2.33a1,1,0,0,0,.3,0,.54.54,0,0,0,.33-.28.78.78,0,0,0,0-.22.41.41,0,0,0-.16-.36.8.8,0,0,0-.49-.14h-.64v1Z" transform="translate(-243.14 -126.58)" style="fill:#fff"/><path id="Path_51226" data-name="Path 51226" d="M300.33,169.39h-1V172H299v-2.63h-1v-.34h2.32Z" transform="translate(-243.14 -126.58)" style="fill:#fff"/><path id="Path_51227" data-name="Path 51227" d="M303.76,170.53a1.88,1.88,0,0,1-.11.62,1.45,1.45,0,0,1-.3.47,1.32,1.32,0,0,1-.46.32,1.81,1.81,0,0,1-.6.11,1.73,1.73,0,0,1-.6-.11,1.27,1.27,0,0,1-.47-.32,1.45,1.45,0,0,1-.3-.47,1.85,1.85,0,0,1,0-1.23,1.5,1.5,0,0,1,.3-.48,1.38,1.38,0,0,1,.47-.31,1.52,1.52,0,0,1,.6-.11,1.59,1.59,0,0,1,.6.11,1.3,1.3,0,0,1,.75.79A1.62,1.62,0,0,1,303.76,170.53Zm-.42,0a1.66,1.66,0,0,0-.07-.49,1.17,1.17,0,0,0-.22-.37,1.24,1.24,0,0,0-.32-.23,1.08,1.08,0,0,0-1.21.23,1.36,1.36,0,0,0-.21.37,1.39,1.39,0,0,0-.07.49,1.32,1.32,0,0,0,.07.49,1.12,1.12,0,0,0,.21.37.94.94,0,0,0,.33.23,1.25,1.25,0,0,0,.88,0,.9.9,0,0,0,.32-.23,1.07,1.07,0,0,0,.22-.37A1.61,1.61,0,0,0,303.34,170.53Z" transform="translate(-243.14 -126.58)" style="fill:#fff"/></g><g id="Group_37937" data-name="Group 37937"><path id="Path_51228" data-name="Path 51228" d="M333.34,139.45c-4.38-.59-15.74-.52-19.5-1.6S310,136,305.2,134.26a76.12,76.12,0,0,0-17.92-3.68c-13.7-1.14-26.59,2.51-33.14,4.8-1.9.26-3.95.64-4.58.81a7.7,7.7,0,0,0-5.59,8.14,6.61,6.61,0,0,0,2.25,4.45,10.83,10.83,0,0,1-.46-4.45,8.3,8.3,0,0,1,4.43-6.47,9.71,9.71,0,0,1,2.52-.9l41.57,2.66L264.4,136.4a53.9,53.9,0,0,1,17.69-4.11s12.48-.75,23.83,3.87c.7.28,1.39.59,1.39.59.52.23,1,.44,1.42.65l-1,1a3.88,3.88,0,0,0-1.3-.86c-1.36-.55-3.4-.53-3.89.23-.31.5.11,1.21.57,1.6a4.07,4.07,0,0,0,4,.25,102.94,102.94,0,0,1,28.2,2.12,13.91,13.91,0,0,0-7,2,9.78,9.78,0,0,0-3.7,3.95A116.85,116.85,0,0,0,312.81,144a131.88,131.88,0,0,0-45.3-3.31L303,144l21.66,6.1a10.84,10.84,0,0,1,5.89-5.93c5-2.1,12-.85,16.64,3.41C341.91,141.66,336.93,139.93,333.34,139.45Z" transform="translate(-243.14 -126.58)" style="fill:#fff"/><path id="Path_51229" data-name="Path 51229" d="M347.65,148c-5.29-5.92-10.26-7.65-13.85-8.13-4.39-.58-15.74-.51-19.5-1.59a21.33,21.33,0,0,1-4.51-1.83l0,3.47a104.41,104.41,0,0,1,12.38.23,100.91,100.91,0,0,1,13.6,2,13.91,13.91,0,0,0-7.06,1.94,9.87,9.87,0,0,0-3.7,4,113.59,113.59,0,0,0-11.71-3.69c-1.24-.32-2.41-.6-3.52-.84v2.65l15.38,4.33A10.86,10.86,0,0,1,331,144.6C336,142.5,343,143.76,347.65,148Z" transform="translate(-243.14 -126.58)" style="fill:#0b9373"/><path id="Path_51230" data-name="Path 51230" d="M248.62,148.41c1.39-1.71,4.59-5.17,9.15-5.81,5.38-.76,9.38,2.89,10.81,4.36" transform="translate(-243.14 -126.58)" style="fill:none;stroke:#fff;stroke-linecap:round;stroke-miterlimit:10;stroke-width:0.4690000116825104px"/></g></g></svg>