<svg id="Layer_1" data-name="Layer 1" xmlns="http://www.w3.org/2000/svg" viewBox="0 0 112.62 46.42"><g id="logo"><rect id="Rectangle_2264" data-name="Rectangle 2264" x="66.68" width="45.94" height="45.94" style="fill:#0b9373"/><g id="Group_37941" data-name="Group 37941"><g id="Group_37940" data-name="Group 37940"><g id="Group_37939" data-name="Group 37939"><path id="Path_51231" data-name="Path 51231" d="M247.56,154a6.9,6.9,0,0,1,2.07.28,4.22,4.22,0,0,1,1.42.79,3.06,3.06,0,0,1,.83,1.18,3.85,3.85,0,0,1,.26,1.46,4.4,4.4,0,0,1-.27,1.57,3.18,3.18,0,0,1-.84,1.21,3.71,3.71,0,0,1-1.42.8,6.72,6.72,0,0,1-2.05.28h-1.37v3.81h-2.64V154Zm0,5.59a1.68,1.68,0,0,0,1.94-1.87,2.11,2.11,0,0,0-.11-.71,1.46,1.46,0,0,0-1-.9,2.33,2.33,0,0,0-.87-.13h-1.37v3.61Z" transform="translate(-242.83 -126.45)" style="fill:#0b9373"/><path id="Path_51232" data-name="Path 51232" d="M264.05,165.36h-2.4a1,1,0,0,1-.95-.5l-1.89-3.3a.75.75,0,0,0-.76-.4h-.67v4.21h-2.64V154h3.7a7.84,7.84,0,0,1,2.1.25,4,4,0,0,1,1.42.71,2.65,2.65,0,0,1,.8,1.07,3.43,3.43,0,0,1,.25,1.34,4.09,4.09,0,0,1-.14,1.05,3.48,3.48,0,0,1-.44.91,3.42,3.42,0,0,1-.72.75,3.76,3.76,0,0,1-1,.54,2.34,2.34,0,0,1,.49.33,2.55,2.55,0,0,1,.4.47Zm-5.61-6a2.55,2.55,0,0,0,.91-.14,1.69,1.69,0,0,0,.63-.38,1.43,1.43,0,0,0,.35-.56,2.38,2.38,0,0,0,.11-.7,1.5,1.5,0,0,0-.49-1.18,2.32,2.32,0,0,0-1.51-.42h-1.07v3.38Z" transform="translate(-242.83 -126.45)" style="fill:#0b9373"/><path id="Path_51233" data-name="Path 51233" d="M277.22,159.66a6,6,0,0,1-.42,2.3,5.42,5.42,0,0,1-3.06,3.08,6.84,6.84,0,0,1-4.84,0,5.46,5.46,0,0,1-3.08-3.08,6.48,6.48,0,0,1,0-4.59,5.44,5.44,0,0,1,3.08-3.07,6.45,6.45,0,0,1,2.42-.44,6.26,6.26,0,0,1,2.42.45,5.51,5.51,0,0,1,1.86,1.22,5.58,5.58,0,0,1,1.2,1.84A6,6,0,0,1,277.22,159.66Zm-2.7,0a4.57,4.57,0,0,0-.22-1.51,3.38,3.38,0,0,0-.62-1.15,2.82,2.82,0,0,0-1-.71,3.75,3.75,0,0,0-2.72,0,2.65,2.65,0,0,0-1,.71,3.22,3.22,0,0,0-.62,1.15,5.25,5.25,0,0,0,0,3,3.06,3.06,0,0,0,.62,1.15,2.65,2.65,0,0,0,1,.71,3.86,3.86,0,0,0,2.72,0,2.82,2.82,0,0,0,1-.71,3.38,3.38,0,0,0,.62-1.15,4.65,4.65,0,0,0,.22-1.53Z" transform="translate(-242.83 -126.45)" style="fill:#0b9373"/><path id="Path_51234" data-name="Path 51234" d="M282.68,156v2.88h3.89v2h-3.89v4.43H280V154h7.32v2Z" transform="translate(-242.83 -126.45)" style="fill:#0b9373"/><path id="Path_51235" data-name="Path 51235" d="M292.78,165.36h-2.65V154h2.65Z" transform="translate(-242.83 -126.45)" style="fill:#0b9373"/><path id="Path_51236" data-name="Path 51236" d="M304.41,156.08h-3.2v9.28h-2.64v-9.28h-3.2V154h9Z" transform="translate(-242.83 -126.45)" style="fill:#0b9373"/></g></g></g><g id="Group_37944" data-name="Group 37944"><g id="Group_37943" data-name="Group 37943"><g id="Group_37942" data-name="Group 37942"><path id="Path_51237" data-name="Path 51237" d="M324.7,162.41a.58.58,0,0,1,.19,0,.57.57,0,0,1,.18.12l1.05,1.1A4.4,4.4,0,0,1,324.4,165a6.06,6.06,0,0,1-2.45.45,5.76,5.76,0,0,1-2.32-.43,5.08,5.08,0,0,1-1.74-1.22,5.35,5.35,0,0,1-1.1-1.85,6.76,6.76,0,0,1-.38-2.32,6.4,6.4,0,0,1,.41-2.33,5.52,5.52,0,0,1,1.16-1.84,5.41,5.41,0,0,1,1.8-1.2,6.5,6.5,0,0,1,3.52-.32,8,8,0,0,1,1.06.31,5.18,5.18,0,0,1,.9.48,5.4,5.4,0,0,1,.74.62l-.9,1.19a.76.76,0,0,1-.2.2.53.53,0,0,1-.33.09.48.48,0,0,1-.26-.07,1.82,1.82,0,0,1-.27-.15l-.3-.2a2.93,2.93,0,0,0-.4-.19,2.72,2.72,0,0,0-.54-.15,2.92,2.92,0,0,0-.72-.06,2.77,2.77,0,0,0-1.2.24,2.58,2.58,0,0,0-.94.7,3.54,3.54,0,0,0-.61,1.15,4.92,4.92,0,0,0-.21,1.53,4.59,4.59,0,0,0,.24,1.56,3.29,3.29,0,0,0,.64,1.14,2.81,2.81,0,0,0,2.13.95,4.86,4.86,0,0,0,.66,0,2.57,2.57,0,0,0,.55-.12,1.8,1.8,0,0,0,.49-.22,3.1,3.1,0,0,0,.46-.35.82.82,0,0,1,.2-.12A.42.42,0,0,1,324.7,162.41Z" transform="translate(-242.83 -126.45)" style="fill:#fff"/><path id="Path_51238" data-name="Path 51238" d="M338.74,165.36h-2.05a.92.92,0,0,1-.56-.16,1.07,1.07,0,0,1-.32-.41l-.67-2h-4.32l-.68,2a.87.87,0,0,1-.31.4.91.91,0,0,1-.55.18h-2.06L331.63,154h2.7Zm-4.2-4.35-1.05-3.12c-.09-.2-.17-.43-.26-.7s-.17-.55-.26-.87c-.08.32-.16.62-.25.89s-.18.5-.25.7l-1.05,3.1Z" transform="translate(-242.83 -126.45)" style="fill:#fff"/><path id="Path_51239" data-name="Path 51239" d="M350.19,165.36H347.8a1,1,0,0,1-.95-.5l-1.89-3.3a.75.75,0,0,0-.76-.4h-.68v4.21h-2.64V154h3.7a7.91,7.91,0,0,1,2.11.25,4,4,0,0,1,1.42.71,2.57,2.57,0,0,1,.8,1.07,3.43,3.43,0,0,1,.25,1.34,3.7,3.7,0,0,1-.15,1.05,3.16,3.16,0,0,1-.43.91,3.41,3.41,0,0,1-.72.75,3.76,3.76,0,0,1-1,.54,2.34,2.34,0,0,1,.49.33,3.07,3.07,0,0,1,.41.47Zm-5.61-6a2.57,2.57,0,0,0,.92-.14,1.69,1.69,0,0,0,.63-.38,1.71,1.71,0,0,0,.35-.56,2.38,2.38,0,0,0,.11-.7,1.5,1.5,0,0,0-.49-1.18,2.32,2.32,0,0,0-1.51-.42h-1.06v3.38Z" transform="translate(-242.83 -126.45)" style="fill:#fff"/></g></g></g><g id="Group_37945" data-name="Group 37945"><path id="Path_51240" data-name="Path 51240" d="M243.78,169.16a1.57,1.57,0,0,1,.48.05,1,1,0,0,1,.32.15.53.53,0,0,1,.19.25.72.72,0,0,1,.06.33.76.76,0,0,1,0,.21,1,1,0,0,1-.1.18.55.55,0,0,1-.18.16.8.8,0,0,1-.25.11.9.9,0,0,1,.5.24.66.66,0,0,1,.17.45,1,1,0,0,1-.07.34.68.68,0,0,1-.2.27,1.06,1.06,0,0,1-.33.18,1.68,1.68,0,0,1-.45.06h-1.06v-3Zm-.55.31v1h.54a1.43,1.43,0,0,0,.29,0,.7.7,0,0,0,.21-.11.31.31,0,0,0,.12-.16.54.54,0,0,0-.12-.59.71.71,0,0,0-.49-.12Zm.65,2.35a1,1,0,0,0,.3,0,.56.56,0,0,0,.2-.11.66.66,0,0,0,.12-.17.78.78,0,0,0,0-.22.48.48,0,0,0-.17-.37.85.85,0,0,0-.5-.13h-.64v1Z" transform="translate(-242.83 -126.45)" style="fill:#0b9373"/><path id="Path_51241" data-name="Path 51241" d="M246.88,170.44a1.84,1.84,0,0,1,.47.06.87.87,0,0,1,.33.17.67.67,0,0,1,.19.25.87.87,0,0,1,.06.32.9.9,0,0,1-.07.37.72.72,0,0,1-.2.29.87.87,0,0,1-.33.17,1.33,1.33,0,0,1-.45.07h-1v-3h.4v1.28Zm0,1.38a1,1,0,0,0,.3,0,.43.43,0,0,0,.2-.11.39.39,0,0,0,.11-.17.56.56,0,0,0,0-.44.36.36,0,0,0-.11-.16.47.47,0,0,0-.2-.1.92.92,0,0,0-.29,0h-.59v1.06Zm2,.32h-.4v-3h.4Z" transform="translate(-242.83 -126.45)" style="fill:#0b9373"/><path id="Path_51242" data-name="Path 51242" d="M252.4,172.14H252a.17.17,0,0,1-.1,0,.43.43,0,0,1-.09-.1l-.78-1.1a.43.43,0,0,0-.12-.11.47.47,0,0,0-.17,0h-.36v1.37H250v-3h.4v1.3h.31a.41.41,0,0,0,.16,0,.28.28,0,0,0,.13-.11l.78-1,.08-.09a.19.19,0,0,1,.1,0h.35l-.9,1.23a.6.6,0,0,1-.27.2.66.66,0,0,1,.19.09.49.49,0,0,1,.14.18Z" transform="translate(-242.83 -126.45)" style="fill:#0b9373"/><path id="Path_51243" data-name="Path 51243" d="M255.41,169.16l-1.21,2.59a.63.63,0,0,1-.13.2.33.33,0,0,1-.14.12.29.29,0,0,1-.16.07.58.58,0,0,1-.19,0,.52.52,0,0,1-.17,0,.06.06,0,0,1,0-.06v-.25h.24l.11,0,.09-.07a.54.54,0,0,0,.07-.13l.15-.3-1.2-2.11h.38a.08.08,0,0,1,.08,0,.2.2,0,0,1,.06.07l.73,1.35a1.94,1.94,0,0,1,.13.3s0-.1.05-.15l.06-.15.63-1.35a.18.18,0,0,1,.05-.07l.09,0Z" transform="translate(-242.83 -126.45)" style="fill:#0b9373"/><path id="Path_51244" data-name="Path 51244" d="M258.47,172.14h-.41v-2.67h-1.49v2.67h-.4v-3h2.3Z" transform="translate(-242.83 -126.45)" style="fill:#0b9373"/><path id="Path_51245" data-name="Path 51245" d="M263.46,169.16v3h-.4v-2.31c0-.06,0-.13,0-.2a1.34,1.34,0,0,1-.07.18.87.87,0,0,1-.08.14l-1.4,2.06-.08.09a.14.14,0,0,1-.1,0h-.3v-3h.4v2.31c0,.07,0,.14,0,.2a.53.53,0,0,1,.08-.17.61.61,0,0,1,.07-.14l1.4-2.07a.36.36,0,0,1,.08-.09.15.15,0,0,1,.11,0Z" transform="translate(-242.83 -126.45)" style="fill:#0b9373"/><path id="Path_51246" data-name="Path 51246" d="M268.35,172.14H268v-2.67h-1.5v2.67h-.4v-3h2.3Z" transform="translate(-242.83 -126.45)" style="fill:#0b9373"/><path id="Path_51247" data-name="Path 51247" d="M270.36,169.16a1.4,1.4,0,0,1,.5.06,1.06,1.06,0,0,1,.35.18.83.83,0,0,1,.2.3,1,1,0,0,1,0,.76.69.69,0,0,1-.21.3.94.94,0,0,1-.35.2,1.27,1.27,0,0,1-.48.07h-.47v1.11h-.4v-3Zm0,1.54a1.06,1.06,0,0,0,.31,0,.54.54,0,0,0,.22-.13.56.56,0,0,0,.14-.2.74.74,0,0,0,.05-.25.59.59,0,0,0-.18-.45.83.83,0,0,0-.53-.16h-.48v1.23Z" transform="translate(-242.83 -126.45)" style="fill:#0b9373"/><path id="Path_51248" data-name="Path 51248" d="M275.12,170.65a1.78,1.78,0,0,1-.11.61,1.5,1.5,0,0,1-.3.48,1.32,1.32,0,0,1-.46.32,1.56,1.56,0,0,1-.6.11,1.52,1.52,0,0,1-.6-.11,1.27,1.27,0,0,1-.47-.32,1.34,1.34,0,0,1-.3-.48,1.85,1.85,0,0,1,0-1.23,1.31,1.31,0,0,1,.76-.8,1.77,1.77,0,0,1,.6-.11,1.73,1.73,0,0,1,.6.11,1.33,1.33,0,0,1,.76.8A1.67,1.67,0,0,1,275.12,170.65Zm-.42,0a1.42,1.42,0,0,0-.08-.5.94.94,0,0,0-.54-.6,1.32,1.32,0,0,0-.44-.08,1.26,1.26,0,0,0-.43.08,1,1,0,0,0-.34.23,1.14,1.14,0,0,0-.21.37,1.57,1.57,0,0,0,0,1,1,1,0,0,0,.21.37,1,1,0,0,0,.34.23,1.26,1.26,0,0,0,.43.08,1.32,1.32,0,0,0,.44-.08.86.86,0,0,0,.33-.23.91.91,0,0,0,.21-.37A1.4,1.4,0,0,0,274.7,170.65Z" transform="translate(-242.83 -126.45)" style="fill:#0b9373"/><path id="Path_51249" data-name="Path 51249" d="M278.74,171.82v.92a.1.1,0,0,1,0,.09.11.11,0,0,1-.09,0h-.24v-.73H276v.6a.11.11,0,0,1,0,.09.15.15,0,0,1-.09,0h-.24v-1.05h.3a.41.41,0,0,0,.13-.1.67.67,0,0,0,.12-.2,1.61,1.61,0,0,0,.12-.33,4,4,0,0,0,.09-.48c0-.19.05-.41.08-.68s0-.54,0-.88h1.77v2.67Zm-.9,0v-2.35h-1c0,.35,0,.64-.07.9a5.5,5.5,0,0,1-.11.67,2.52,2.52,0,0,1-.13.47,1.54,1.54,0,0,1-.17.31Z" transform="translate(-242.83 -126.45)" style="fill:#0b9373"/><path id="Path_51250" data-name="Path 51250" d="M282,172.14h-.31l-.09,0-.05-.06-.28-.73H280l-.28.73-.05.06-.09,0h-.31l1.19-3h.41Zm-.84-1.1-.47-1.22,0-.13s0-.1-.05-.15a2,2,0,0,1-.08.28l-.47,1.22Z" transform="translate(-242.83 -126.45)" style="fill:#0b9373"/><path id="Path_51251" data-name="Path 51251" d="M286.7,172.14h-.26a.29.29,0,0,1-.16,0,.32.32,0,0,1-.1-.1l-.76-1.06a.37.37,0,0,0-.12-.13.4.4,0,0,0-.19,0h-.34v1.36h-.38v-1.36H284a.39.39,0,0,0-.18,0,.37.37,0,0,0-.13.12L283,172a.31.31,0,0,1-.26.15h-.27l.89-1.3a.55.55,0,0,1,.14-.17.4.4,0,0,1,.18-.1.38.38,0,0,1-.15-.09.53.53,0,0,1-.12-.14l-.87-1.19h.31a.14.14,0,0,1,.12,0,.26.26,0,0,1,.09.09l.74,1a.39.39,0,0,0,.14.12.53.53,0,0,0,.17,0h.3v-1.31h.38v1.3h.3a.51.51,0,0,0,.17,0,.37.37,0,0,0,.13-.12l.75-1a.38.38,0,0,1,.09-.09.14.14,0,0,1,.11,0h.32l-.87,1.19a.81.81,0,0,1-.12.14.6.6,0,0,1-.15.09.46.46,0,0,1,.18.1.39.39,0,0,1,.14.17Z" transform="translate(-242.83 -126.45)" style="fill:#0b9373"/><path id="Path_51252" data-name="Path 51252" d="M289.92,172.14h-.31a.14.14,0,0,1-.09,0l0-.06-.28-.73h-1.34l-.28.73-.05.06a.12.12,0,0,1-.09,0h-.31l1.2-3h.41Zm-.84-1.1-.47-1.22-.05-.13a.83.83,0,0,1,0-.15,1.52,1.52,0,0,1-.09.28L288,171Z" transform="translate(-242.83 -126.45)" style="fill:#0b9373"/><path id="Path_51253" data-name="Path 51253" d="M294.55,172.14h-.31a.12.12,0,0,1-.09,0l0-.06-.28-.73h-1.34l-.28.73-.05.06a.12.12,0,0,1-.09,0h-.31l1.2-3h.4Zm-.84-1.1-.47-1.22-.05-.13s0-.1,0-.15a2.29,2.29,0,0,1-.09.28l-.47,1.22Z" transform="translate(-242.83 -126.45)" style="fill:#0b9373"/><path id="Path_51254" data-name="Path 51254" d="M296.27,169.16a1.48,1.48,0,0,1,.47.05,1,1,0,0,1,.33.15.58.58,0,0,1,.18.25.72.72,0,0,1,.07.33.52.52,0,0,1,0,.21.71.71,0,0,1-.27.34.91.91,0,0,1-.25.11,1,1,0,0,1,.5.24.61.61,0,0,1,.16.45.8.8,0,0,1-.07.34.6.6,0,0,1-.2.27,1,1,0,0,1-.33.18,1.61,1.61,0,0,1-.44.06h-1.06v-3Zm-.55.31v1h.53a1.36,1.36,0,0,0,.29,0,.91.91,0,0,0,.22-.11.36.36,0,0,0,.11-.16.36.36,0,0,0,0-.2.44.44,0,0,0-.15-.39.72.72,0,0,0-.49-.12Zm.64,2.35a1,1,0,0,0,.3,0,.49.49,0,0,0,.2-.11.48.48,0,0,0,.12-.17.54.54,0,0,0,0-.22.45.45,0,0,0-.17-.37.84.84,0,0,0-.49-.13h-.64v1Z" transform="translate(-242.83 -126.45)" style="fill:#0b9373"/><path id="Path_51255" data-name="Path 51255" d="M300.34,169.49h-1v2.65H299v-2.65h-1v-.33h2.33Z" transform="translate(-242.83 -126.45)" style="fill:#0b9373"/><path id="Path_51256" data-name="Path 51256" d="M303.78,170.65a1.57,1.57,0,0,1-.11.61,1.34,1.34,0,0,1-.3.48,1.32,1.32,0,0,1-.46.32,1.56,1.56,0,0,1-.6.11,1.52,1.52,0,0,1-.6-.11,1.27,1.27,0,0,1-.47-.32,1.5,1.5,0,0,1-.3-.48,1.85,1.85,0,0,1,0-1.23,1.5,1.5,0,0,1,.3-.48,1.27,1.27,0,0,1,.47-.32,1.73,1.73,0,0,1,.6-.11,1.77,1.77,0,0,1,.6.11,1.39,1.39,0,0,1,.76.8A1.88,1.88,0,0,1,303.78,170.65Zm-.42,0a1.68,1.68,0,0,0-.07-.5,1.36,1.36,0,0,0-.21-.37,1.23,1.23,0,0,0-.33-.23,1.25,1.25,0,0,0-.88,0,.86.86,0,0,0-.33.23,1.17,1.17,0,0,0-.22.37,1.68,1.68,0,0,0-.07.5,1.66,1.66,0,0,0,.07.49,1.07,1.07,0,0,0,.22.37.86.86,0,0,0,.33.23,1.25,1.25,0,0,0,.88,0,1,1,0,0,0,.33-.23,1.23,1.23,0,0,0,.21-.37A1.66,1.66,0,0,0,303.36,170.65Z" transform="translate(-242.83 -126.45)" style="fill:#0b9373"/></g><g id="Group_37946" data-name="Group 37946"><path id="Path_51257" data-name="Path 51257" d="M333.53,139.39c-4.41-.59-15.83-.52-19.61-1.6s-3.85-1.85-8.69-3.62a76.86,76.86,0,0,0-18-3.7c-13.78-1.14-26.73,2.54-33.32,4.83-1.91.27-4,.65-4.61.82a7.74,7.74,0,0,0-5.61,8.19,6.68,6.68,0,0,0,2.25,4.47,11.14,11.14,0,0,1-.46-4.48,8.38,8.38,0,0,1,4.46-6.51,10.31,10.31,0,0,1,2.53-.9l41.8,2.68-30-3.24A54,54,0,0,1,282,132.19s12.55-.76,23.95,3.89c.7.28,1.4.6,1.4.6.53.22,1,.44,1.43.65l-1,1a3.67,3.67,0,0,0-1.3-.87c-1.36-.55-3.42-.53-3.91.23-.31.5.11,1.22.58,1.61a4.09,4.09,0,0,0,4,.25,103.06,103.06,0,0,1,28.36,2.14,13.88,13.88,0,0,0-7.1,2,9.88,9.88,0,0,0-3.72,4,114.71,114.71,0,0,0-11.77-3.7,132.58,132.58,0,0,0-45.55-3.33L303,144l21.77,6.13a10.88,10.88,0,0,1,5.92-6c5-2.12,12-.85,16.74,3.43C342.14,141.62,337.14,139.87,333.53,139.39Z" transform="translate(-242.83 -126.45)" style="fill:#0b9373"/><path id="Path_51258" data-name="Path 51258" d="M347.93,148c-5.33-6-10.33-7.69-13.94-8.17-4.4-.59-15.82-.52-19.61-1.6a21.82,21.82,0,0,1-4.54-1.84l0,3.49a103.44,103.44,0,0,1,12.45.23,101.86,101.86,0,0,1,13.68,2,14,14,0,0,0-7.09,1.95,9.84,9.84,0,0,0-3.72,4,115.67,115.67,0,0,0-11.78-3.7c-1.25-.33-2.42-.61-3.54-.85v2.67l15.46,4.35a10.93,10.93,0,0,1,5.92-6C336.24,142.47,343.24,143.73,347.93,148Z" transform="translate(-242.83 -126.45)" style="fill:#fff"/><path id="Path_51259" data-name="Path 51259" d="M248.34,148.4c1.4-1.72,4.62-5.2,9.2-5.84,5.41-.76,9.43,2.9,10.87,4.38" transform="translate(-242.83 -126.45)" style="fill:none;stroke:#0b9373;stroke-linecap:round;stroke-miterlimit:10;stroke-width:0.4690000116825104px"/></g></g></svg>