<svg id="Layer_1" data-name="Layer 1" xmlns="http://www.w3.org/2000/svg" viewBox="0 0 40 40"><g id="Stroke"><circle cx="20" cy="20" r="20" style="fill:none"/><circle cx="20" cy="20" r="19.5" style="fill:none;stroke:#149373;stroke-linejoin:round"/></g><path id="Path_51030" data-name="Path 51030" d="M157,144.8,152,149.55,157,154.3a1.19,1.19,0,0,1,0,1.66l0,0-.22.21a1.28,1.28,0,0,1-1.75,0l-4.81-4.62-4.82,4.64a1.27,1.27,0,0,1-1.74,0l-.23-.21a1.17,1.17,0,0,1,0-1.65l0,0,4.94-4.77-4.94-4.75a1.18,1.18,0,0,1,0-1.65l0,0,.23-.21a1.27,1.27,0,0,1,1.74,0l4.81,4.63L155,142.9a1.27,1.27,0,0,1,1.74,0l.23.2a1.17,1.17,0,0,1,.05,1.65A.12.12,0,0,1,157,144.8Z" transform="translate(-130.03 -129.55)" style="fill:#149373;fill-rule:evenodd"/></svg>