<svg id="Layer_1" data-name="Layer 1" xmlns="http://www.w3.org/2000/svg" viewBox="0 0 154.07 154.02"><path id="Path_51119" data-name="Path 51119" d="M149.92,72.37v0a4,4,0,0,0-2.2.81l-20.3,15.23H89.55v28.39L75.72,127.17a4,4,0,0,0-2.28,5.08,3.78,3.78,0,0,0-.09.95v89h0c0,.13,0,.25,0,.38v0c0,.12,0,.25.07.38h0a2.34,2.34,0,0,0,.09.38v0c0,.12.09.24.14.36v0c.06.12.11.23.18.35h0a2.46,2.46,0,0,0,.22.34h0a1.76,1.76,0,0,0,.24.3v0l.28.28a4.06,4.06,0,0,0,2.82,1.16H222.34a4,4,0,0,0,4.9-4.57V133.2a4.07,4.07,0,0,0-.3-1.58h0a4,4,0,0,0-2-4.27L211,116.94V88.43H172.93L152.57,73.18A4.07,4.07,0,0,0,149.92,72.37Zm.25,9.13,9.26,6.93h-18.5Zm-52.52,15H203V138.6l-.3.19-.24.14-52.26,32.64-52.5-32.73V96.53Zm69,14.5h-.4a4.09,4.09,0,0,0-2.76,1.3L139.9,137.21l-11-11.12a4,4,0,1,0-5.82,5.63l.08.08,13.46,13.54a4,4,0,0,0,4.57,1.58l.24-.08.14-.06.22-.1.14-.08a3.91,3.91,0,0,0,1.3-1.09l26.15-27.6a4.05,4.05,0,0,0-2.73-6.89ZM89.55,127v6.83l-5-3.1Zm121.5.11,4.71,3.52-.7.43-4,2.52Zm8.1,10.94v76.73L176.89,186.5a4.07,4.07,0,0,0-2.29-.73v0a4,4,0,0,0-2.22,7.45l37.37,24.95h-119l37.41-24.95a4.05,4.05,0,1,0-4.42-6.79l-.07.05L81.45,214.67V138.28l8.1,5.05,1.91,1.19,55.85,34.82.68.42.3.19h0a4.19,4.19,0,0,0,2,.43h.21l.19,0,.08,0a3.14,3.14,0,0,0,.4-.08l.38-.11a2.85,2.85,0,0,0,.31-.12l.07,0,.06,0H152l59-36.86v0Z" transform="translate(-73.21 -72.37)" style="fill:#149373"/></svg>