<svg id="Layer_1" data-name="Layer 1" xmlns="http://www.w3.org/2000/svg" viewBox="0 0 26.37 43.26"><g id="layer1"><path id="path31" d="M299.15,154.39,295,171.29s10.3-12.88,14.65-20.85a19.34,19.34,0,0,0,2.63-7.7" transform="translate(-286.01 -128.03)" style="fill:#149373;fill-rule:evenodd"/><path id="path4159" d="M299.19,128a13.3,13.3,0,0,0-2.52.26l-.34.07a13.28,13.28,0,0,0-2.14.67l-.33.14a14.11,14.11,0,0,0-1.95,1.06l-.24.17a14.33,14.33,0,0,0-1.75,1.45l-.15.16a12.37,12.37,0,0,0-1.49,1.81l-.07.12a13.63,13.63,0,0,0-1.14,2.09l0,.05,0,.07a13.54,13.54,0,0,0-.72,2.32l0,.12a12.89,12.89,0,0,0,0,5.14c0,.11.05.22.07.34a13.28,13.28,0,0,0,.67,2.14,2.92,2.92,0,0,0,.14.31,12.85,12.85,0,0,0,1.06,2c.06.07.11.15.16.22a13,13,0,0,0,1.46,1.78l.12.11a13.39,13.39,0,0,0,1.84,1.52l.08,0a13.16,13.16,0,0,0,2.12,1.15l.07,0h0a13.38,13.38,0,0,0,2.38.74l.1,0a13.55,13.55,0,0,0,2.62.28h0c.31,0,.62,0,.93,0a11.43,11.43,0,0,0,1.31-.16c.44-.07.86-.17,1.29-.28a13.54,13.54,0,0,0,3.6-1.61c.37-.24.72-.5,1.07-.77s.67-.56,1-.87.61-.63.9-1,.55-.69.8-1.05a13.12,13.12,0,0,0,.69-1.13,12.81,12.81,0,0,0,.57-1.18c.17-.41.32-.82.45-1.24s.24-.85.33-1.28.12-.72.16-1.08.05-.49.06-.66,0-.58,0-.88a13.27,13.27,0,0,0-.25-2.51c0-.12-.05-.23-.08-.35a13.44,13.44,0,0,0-.66-2.13l-.15-.33a13.13,13.13,0,0,0-1.06-1.95l-.17-.24a13.56,13.56,0,0,0-1.45-1.76l-.15-.14a12.92,12.92,0,0,0-1.81-1.49l-.13-.08a13.38,13.38,0,0,0-2.07-1.13l-.07,0-.08,0a13.17,13.17,0,0,0-2.31-.72l-.12,0a12.8,12.8,0,0,0-2.62-.27Z" transform="translate(-286.01 -128.03)" style="fill:#149373;fill-rule:evenodd"/><path id="path4151" d="M299.19,136.09a5.13,5.13,0,1,1-5.13,5.12h0A5.13,5.13,0,0,1,299.19,136.09Z" transform="translate(-286.01 -128.03)" style="fill:#fff"/></g></svg>