<svg xmlns="http://www.w3.org/2000/svg" width="25.811" height="25.811" viewBox="0 0 25.811 25.811"><defs><style>.a{fill:#fff;}</style></defs><path class="a" d="M8.191,14.17a21.648,21.648,0,0,0,9.45,9.45l3.155-3.155a1.439,1.439,0,0,1,1.463-.358,16.29,16.29,0,0,0,5.119.817,1.434,1.434,0,0,1,1.434,1.434v5.019a1.434,1.434,0,0,1-1.434,1.434A24.377,24.377,0,0,1,3,4.434,1.434,1.434,0,0,1,4.434,3H9.453a1.434,1.434,0,0,1,1.434,1.434A16.29,16.29,0,0,0,11.7,9.553a1.439,1.439,0,0,1-.358,1.463Z" transform="translate(-3 -3)"/></svg>