<svg id="Layer_1" data-name="Layer 1" xmlns="http://www.w3.org/2000/svg" viewBox="0 0 38.75 28.9"><g id="Group_37915" data-name="Group 37915"><path id="Path_51169" data-name="Path 51169" d="M314.73,163.61H283.55c-1.81,0-3.28-.66-3.28-2.51v-1.68h14l1.64.84h6.57l1.64-.84H318v1.68C318,163,316.55,163.61,314.73,163.61Z" transform="translate(-279.77 -135.21)" style="fill:none;stroke:#fff;stroke-linejoin:round"/><path id="Path_51170" data-name="Path 51170" d="M282.79,159.42V137.35a1.63,1.63,0,0,1,1.63-1.64h29.45a1.63,1.63,0,0,1,1.63,1.64h0v22.07" transform="translate(-279.77 -135.21)" style="fill:none;stroke:#fff;stroke-linejoin:round"/><path id="Path_51171" data-name="Path 51171" d="M307.53,144.1l-1.1-2.47a2.51,2.51,0,0,0-2.39-1.72h-9.79a2.51,2.51,0,0,0-2.39,1.72l-1.1,2.47" transform="translate(-279.77 -135.21)" style="fill:none;stroke:#fff;stroke-miterlimit:10"/><path id="Path_51172" data-name="Path 51172" d="M295,150.48h8.39" transform="translate(-279.77 -135.21)" style="fill:none;stroke:#fff;stroke-miterlimit:10"/><path id="Path_51173" data-name="Path 51173" d="M311.33,143h-2.44c-.27,0-2.46,2.52-4.06,2.52H293.45c-1.6,0-3.79-2.52-4.06-2.52H287a.83.83,0,0,0-.81.84h0v1.12a.82.82,0,0,0,.81.84h0l1.63.55v.84a2.9,2.9,0,0,0-.81,2v1.33a2.48,2.48,0,0,0,.81,1.86v2.33a.83.83,0,0,0,.81.84h3.25a.82.82,0,0,0,.81-.84h0V153h11.38v1.68a.83.83,0,0,0,.81.84h3.25a.83.83,0,0,0,.82-.84h0v-2.33a2.52,2.52,0,0,0,.81-1.86v-1.33a2.94,2.94,0,0,0-.81-2v-.84l1.62-.55a.83.83,0,0,0,.82-.83h0v-1.12a.83.83,0,0,0-.82-.84Z" transform="translate(-279.77 -135.21)" style="fill:none;stroke:#fff;stroke-miterlimit:10"/><path id="Path_51174" data-name="Path 51174" d="M307.86,147.5a6.13,6.13,0,0,1-3.85,1.36" transform="translate(-279.77 -135.21)" style="fill:none;stroke:#fff;stroke-miterlimit:10"/><path id="Path_51175" data-name="Path 51175" d="M290.43,147.5a6.13,6.13,0,0,0,3.85,1.36" transform="translate(-279.77 -135.21)" style="fill:none;stroke:#fff;stroke-miterlimit:10"/><line id="Line_9" data-name="Line 9" x1="13.68" y1="17.73" x2="10.33" y2="17.73" style="fill:none;stroke:#fff;stroke-miterlimit:10"/><line id="Line_10" data-name="Line 10" x1="28.42" y1="17.73" x2="25.07" y2="17.73" style="fill:none;stroke:#fff;stroke-miterlimit:10"/></g></svg>