<svg id="Layer_1" data-name="Layer 1" xmlns="http://www.w3.org/2000/svg" viewBox="0 0 37.83 37.82"><path id="Path_51176" data-name="Path 51176" d="M308,154.07a.46.46,0,0,0,.58.3h0l5.08-1.7a.46.46,0,0,0,.29-.58h0a1.37,1.37,0,0,1,.86-1.75h0a.46.46,0,0,0,.3-.58h0l-1.17-3.5a.47.47,0,0,0-.59-.29,1.39,1.39,0,0,1-1.75-.87.46.46,0,0,0-.58-.29l-5.08,1.7a.46.46,0,0,0,.29.87l4.68-1.56a2.33,2.33,0,0,0,2.28,1.13l.91,2.71a2.34,2.34,0,0,0-1.14,2.28l-4.68,1.56a.46.46,0,0,0-.29.58Z" transform="translate(-280.22 -130.77)" style="fill:#fff"/><path id="Path_51177" data-name="Path 51177" d="M300,144.47a.46.46,0,0,0,.65,0l0,0,3.79-3.78a.46.46,0,0,0,0-.65h0a1.38,1.38,0,0,1,0-1.93.46.46,0,0,0,0-.66h0l-2.61-2.61a.47.47,0,0,0-.66,0,1.39,1.39,0,0,1-2,0,.46.46,0,0,0-.65,0h0l-3.79,3.79a.46.46,0,1,0,.65.65l3.49-3.49a2.32,2.32,0,0,0,2.55,0l2,2a2.32,2.32,0,0,0,0,2.55l-3.49,3.49A.46.46,0,0,0,300,144.47Z" transform="translate(-280.22 -130.77)" style="fill:#fff"/><path id="Path_51178" data-name="Path 51178" d="M306.08,156.66a.46.46,0,0,0,.58.29h0l11.08-3.71a.46.46,0,0,0,.29-.58l-3.51-10.5a.46.46,0,0,0-.58-.29l-26.26,8.78a.46.46,0,0,0-.27.59.47.47,0,0,0,.56.29l11-3.69a6.17,6.17,0,0,0-.6,3.75.47.47,0,0,0,.51.4.48.48,0,0,0,.4-.52c-.26-2.11.48-3.89,1.79-4.32,1.65-.55,3.79,1.18,4.68,3.79a6.92,6.92,0,0,1,.3,3.38.46.46,0,0,0,.36.54.46.46,0,0,0,.54-.37h0a7.76,7.76,0,0,0-.33-3.85,6.93,6.93,0,0,0-3.48-4.2l10.63-3.55,3.21,9.63-10.63,3.56A.46.46,0,0,0,306.08,156.66Z" transform="translate(-280.22 -130.77)" style="fill:#fff"/><path id="Path_51179" data-name="Path 51179" d="M292.45,152l4.69-1.57a.46.46,0,0,0,.27-.59.47.47,0,0,0-.56-.29l-4.69,1.57a.46.46,0,0,0,.26.89Z" transform="translate(-280.22 -130.77)" style="fill:#fff"/><path id="Path_51180" data-name="Path 51180" d="M300.59,130.91a.46.46,0,0,0-.65,0l-19.58,19.58a.46.46,0,0,0,0,.65l.72.72a.46.46,0,0,0,.65,0,.47.47,0,0,0,0-.66l-.39-.39,7.89-7.89a7,7,0,0,0,2.49,5.2.46.46,0,1,0,.55-.74c-2.17-2-2.73-4.79-1.48-6s3.91-.67,5.88,1.31a6.67,6.67,0,0,1,1.78,2.91.47.47,0,0,0,.56.35.46.46,0,0,0,.34-.55.06.06,0,0,0,0,0,7.56,7.56,0,0,0-2-3.32,6.88,6.88,0,0,0-4.93-2.24l7.87-7.87,7.17,7.17-4.63,4.64a.46.46,0,0,0,.65.65l5-5a.46.46,0,0,0,0-.65Z" transform="translate(-280.22 -130.77)" style="fill:#fff"/><path id="Path_51181" data-name="Path 51181" d="M288.71,145.39a.46.46,0,0,0-.65,0h0l-3.78,3.79a.46.46,0,0,0,0,.65h0a1.35,1.35,0,0,1,.29,1.51.47.47,0,0,0,.24.61.46.46,0,0,0,.61-.23,2.31,2.31,0,0,0-.19-2.18l3.49-3.5C288.8,145.9,288.66,145.63,288.71,145.39Z" transform="translate(-280.22 -130.77)" style="fill:#fff"/><path id="Path_51182" data-name="Path 51182" d="M280.22,154.3v12.91a1.39,1.39,0,0,0,1.39,1.39h22.14a1.38,1.38,0,0,0,1.38-1.39V154.3a1.38,1.38,0,0,0-1.38-1.39H281.61A1.39,1.39,0,0,0,280.22,154.3Zm24,12.91a.47.47,0,0,1-.46.47H281.61a.47.47,0,0,1-.46-.47v-7.84h23.06Zm0-8.76H281.15v-2.77h23.06Zm0-4.15v.46H281.15v-.46a.45.45,0,0,1,.46-.46h22.14A.46.46,0,0,1,304.21,154.3Z" transform="translate(-280.22 -130.77)" style="fill:#fff"/><path id="Path_51183" data-name="Path 51183" d="M282.53,164.91h16.61a.47.47,0,0,0,.46-.46v-3.69a.47.47,0,0,0-.46-.47H282.53a.47.47,0,0,0-.46.47h0v3.69A.47.47,0,0,0,282.53,164.91Zm.46-3.69h15.69V164H283Z" transform="translate(-280.22 -130.77)" style="fill:#fff"/><path id="Path_51184" data-name="Path 51184" d="M282.53,166.75h12.92a.46.46,0,0,0,.46-.46.47.47,0,0,0-.46-.46H282.53a.47.47,0,0,0-.46.46A.46.46,0,0,0,282.53,166.75Z" transform="translate(-280.22 -130.77)" style="fill:#fff"/></svg>