<svg id="Layer_1" data-name="Layer 1" xmlns="http://www.w3.org/2000/svg" viewBox="0 0 38.75 43.45"><g id="Group_37917" data-name="Group 37917"><path id="Path_51164" data-name="Path 51164" d="M290.6,128.44v6.61H285v-6.61c-2.94,0-4.7,2.58-4.7,5.66V136a5.89,5.89,0,0,0,3.76,5.66v25.48a3.76,3.76,0,1,0,7.51,0V141.65A5.9,5.9,0,0,0,295.3,136V134.1C295.3,131,293.53,128.44,290.6,128.44Z" transform="translate(-279.77 -127.94)" style="fill:none;stroke:#fff;stroke-linejoin:round"/><line id="Line_7" data-name="Line 7" x1="7.94" y1="37.32" x2="7.94" y2="39.34" style="fill:none;stroke:#fff;stroke-linejoin:round"/><path id="Path_51165" data-name="Path 51165" d="M293.61,160.49h18.78a2.81,2.81,0,0,0,2.81-2.82V152a3.15,3.15,0,0,0-.15-1.18l-1-1.47a1,1,0,0,1,.26-1.3,1,1,0,0,1,.3-.13l2.46-.62a.94.94,0,0,0,.94-.94v-1.87a.94.94,0,0,0-.94-.94h-4.19a.9.9,0,0,0-.78.42l-1.24,1.86a6.3,6.3,0,0,1-3.18,1.47H293.61" transform="translate(-279.77 -127.94)" style="fill:none;stroke:#fff;stroke-miterlimit:10"/><path id="Path_51166" data-name="Path 51166" d="M297.31,137.89a60.11,60.11,0,0,1,9.28.78,3.72,3.72,0,0,1,2,1.1c.43.51,2.68,5.36,2.68,5.36" transform="translate(-279.77 -127.94)" style="fill:none;stroke:#fff;stroke-miterlimit:10"/><path id="Path_51167" data-name="Path 51167" d="M312.35,151.09h0a6.37,6.37,0,0,1-4.53,1.88h-2" transform="translate(-279.77 -127.94)" style="fill:none;stroke:#fff;stroke-miterlimit:10"/><path id="Path_51168" data-name="Path 51168" d="M314.26,159.6v3.76a.94.94,0,0,1-.93.94h-6.58a.94.94,0,0,1-.94-.94v-2.82" transform="translate(-279.77 -127.94)" style="fill:none;stroke:#fff;stroke-miterlimit:10"/><line id="Line_8" data-name="Line 8" x1="14.1" y1="28.77" x2="26.2" y2="28.77" style="fill:none;stroke:#fff;stroke-miterlimit:10"/></g></svg>