<svg id="Layer_1" data-name="Layer 1" xmlns="http://www.w3.org/2000/svg" viewBox="0 0 37.75 37.75"><path id="Path_51185" data-name="Path 51185" d="M294.11,146.9h1.05a2.49,2.49,0,0,0,4.88,0h5.08a2.49,2.49,0,0,0,4.88,0h1.05a1,1,0,0,0,1-1v-3a1,1,0,0,0-1-1h-3.18l-1.58-3.16a1.49,1.49,0,0,0-1.34-.83h-6.73a1.49,1.49,0,0,0-1.34.83l-1.58,3.15h-1.19a1,1,0,0,0-1,1v3A1,1,0,0,0,294.11,146.9Zm3.49,1a1.5,1.5,0,1,1,1.49-1.49,1.49,1.49,0,0,1-1.49,1.49Zm10,0a1.5,1.5,0,1,1,1.49-1.49,1.49,1.49,0,0,1-1.49,1.49Zm-9.79-8.69a.51.51,0,0,1,.45-.28H305a.51.51,0,0,1,.45.28l1.35,2.71H296.41Zm-3.66,3.71h16.94v3H310a2.49,2.49,0,0,0-4.88,0H300a2.49,2.49,0,0,0-4.88,0h-1.05Z" transform="translate(-280.27 -130.79)" style="fill:#fff"/><path id="Path_51186" data-name="Path 51186" d="M317.52,134.77H287.64a.48.48,0,0,0-.5.46v32.85a.47.47,0,0,0,.5.46h25.9a.52.52,0,0,0,.35-.14l4-3.65a.41.41,0,0,0,.15-.32v-29.2A.48.48,0,0,0,317.52,134.77ZM314,167v-2.09h2.29Zm3-3h-3.48a.47.47,0,0,0-.5.46v3.18h-24.9V135.68H317Z" transform="translate(-280.27 -130.79)" style="fill:#fff"/><path id="Path_51187" data-name="Path 51187" d="M288.74,163.64h-7.47V131.7h28.88v1.37a.5.5,0,0,0,.5.5.5.5,0,0,0,.5-.5v-1.83a.47.47,0,0,0-.5-.45H280.77a.47.47,0,0,0-.5.45V164.1a.47.47,0,0,0,.5.45h8a.46.46,0,0,0,.07-.91Z" transform="translate(-280.27 -130.79)" style="fill:#fff"/><path id="Path_51188" data-name="Path 51188" d="M291.62,152h21.92a.5.5,0,0,0,0-1H291.62a.5.5,0,0,0,0,1Z" transform="translate(-280.27 -130.79)" style="fill:#fff"/><path id="Path_51189" data-name="Path 51189" d="M291.62,155.68h21.92a.51.51,0,0,0,.5-.5.5.5,0,0,0-.5-.5H291.62a.5.5,0,0,0-.5.5A.51.51,0,0,0,291.62,155.68Z" transform="translate(-280.27 -130.79)" style="fill:#fff"/><path id="Path_51190" data-name="Path 51190" d="M291.62,159.35h21.92a.5.5,0,0,0,.5-.5.51.51,0,0,0-.5-.5H291.62a.51.51,0,0,0-.5.5A.5.5,0,0,0,291.62,159.35Z" transform="translate(-280.27 -130.79)" style="fill:#fff"/><path id="Path_51191" data-name="Path 51191" d="M293.17,162.56h11.95a.5.5,0,0,0,.5-.5.5.5,0,0,0-.5-.5H293.17a.5.5,0,0,0-.5.5A.5.5,0,0,0,293.17,162.56Z" transform="translate(-280.27 -130.79)" style="fill:#fff"/><path id="Path_51192" data-name="Path 51192" d="M288.74,141.82h-4a.5.5,0,0,0-.5.5.51.51,0,0,0,.5.5h4a.51.51,0,0,0,.5-.5A.5.5,0,0,0,288.74,141.82Z" transform="translate(-280.27 -130.79)" style="fill:#fff"/><path id="Path_51193" data-name="Path 51193" d="M288.74,138.14h-4a.51.51,0,0,0-.5.5.5.5,0,0,0,.5.5h4a.5.5,0,0,0,.5-.5A.51.51,0,0,0,288.74,138.14Z" transform="translate(-280.27 -130.79)" style="fill:#fff"/><path id="Path_51194" data-name="Path 51194" d="M288.74,145.49h-4a.51.51,0,0,0-.5.5.5.5,0,0,0,.5.5h4a.5.5,0,0,0,.5-.5A.51.51,0,0,0,288.74,145.49Z" transform="translate(-280.27 -130.79)" style="fill:#fff"/><path id="Path_51195" data-name="Path 51195" d="M288.74,149.17h-4a.5.5,0,0,0-.5.5.51.51,0,0,0,.5.5h4a.51.51,0,0,0,.5-.5A.5.5,0,0,0,288.74,149.17Z" transform="translate(-280.27 -130.79)" style="fill:#fff"/><path id="Path_51196" data-name="Path 51196" d="M288.74,152.84h-4a.51.51,0,0,0-.5.5.5.5,0,0,0,.5.5h4a.5.5,0,0,0,.5-.5A.51.51,0,0,0,288.74,152.84Z" transform="translate(-280.27 -130.79)" style="fill:#fff"/><path id="Path_51197" data-name="Path 51197" d="M288.74,156.52h-4a.5.5,0,0,0-.5.5.51.51,0,0,0,.5.5h4a.51.51,0,0,0,.5-.5A.5.5,0,0,0,288.74,156.52Z" transform="translate(-280.27 -130.79)" style="fill:#fff"/><path id="Path_51198" data-name="Path 51198" d="M288.74,160.19h-4a.51.51,0,0,0-.5.5.5.5,0,0,0,.5.5h4a.5.5,0,0,0,.5-.5A.51.51,0,0,0,288.74,160.19Z" transform="translate(-280.27 -130.79)" style="fill:#fff"/></svg>