<svg id="Layer_1" data-name="Layer 1" xmlns="http://www.w3.org/2000/svg" viewBox="0 0 106.39 66.83"><g id="icon1"><path id="Path_51139" data-name="Path 51139" d="M300.11,171.77H262.87a7,7,0,0,1-7-7h0V152.73a14,14,0,0,1,2.35-7.75l2.31-3.46-9.31-2.33a2.32,2.32,0,0,1-2.33-2.32v-4.66a2.34,2.34,0,0,1,2.33-2.33h11.63l4.66,7,7,2.32h25.6" transform="translate(-246.91 -116.25)" style="fill:none;stroke:#149373;stroke-linecap:round;stroke-linejoin:round;stroke-width:4px"/><path id="Path_51140" data-name="Path 51140" d="M262.87,148.5l1.25,1.25a11.63,11.63,0,0,0,8.23,3.4h6.81" transform="translate(-246.91 -116.25)" style="fill:none;stroke:#149373;stroke-miterlimit:10;stroke-width:4px"/><path id="Path_51141" data-name="Path 51141" d="M258.22,169.44v9.31a2.33,2.33,0,0,0,2.33,2.33h16.29a2.32,2.32,0,0,0,2.32-2.33v-7" transform="translate(-246.91 -116.25)" style="fill:none;stroke:#149373;stroke-linejoin:round;stroke-width:4px"/><path id="Path_51142" data-name="Path 51142" d="M300.11,171.77h37.23a7,7,0,0,0,7-7h0V152.73A14,14,0,0,0,342,145l-2.31-3.46,9.31-2.33a2.32,2.32,0,0,0,2.33-2.32v-4.66a2.34,2.34,0,0,0-2.33-2.33H337.34l-4.66,7-7,2.32H300.11" transform="translate(-246.91 -116.25)" style="fill:none;stroke:#149373;stroke-linecap:round;stroke-linejoin:round;stroke-width:4px"/><path id="Path_51143" data-name="Path 51143" d="M335,134.54s-5.91-12.69-7-14a6.78,6.78,0,0,0-4.65-2.33H276.84a6.79,6.79,0,0,0-4.66,2.33c-1.07,1.27-7,14-7,14" transform="translate(-246.91 -116.25)" style="fill:none;stroke:#149373;stroke-miterlimit:10;stroke-width:4px"/><path id="Path_51144" data-name="Path 51144" d="M337.34,148.5l-1.25,1.25a11.63,11.63,0,0,1-8.23,3.4h-6.81" transform="translate(-246.91 -116.25)" style="fill:none;stroke:#149373;stroke-miterlimit:10;stroke-width:4px"/><path id="Path_51145" data-name="Path 51145" d="M342,169.44v9.31a2.33,2.33,0,0,1-2.33,2.33H323.37a2.32,2.32,0,0,1-2.32-2.33v-7" transform="translate(-246.91 -116.25)" style="fill:none;stroke:#149373;stroke-linejoin:round;stroke-width:4px"/><line id="Line_4" data-name="Line 4" x1="32.78" y1="46.47" x2="73.78" y2="46.47" style="fill:none;stroke:#149373;stroke-miterlimit:10;stroke-width:4px"/></g></svg>