<svg id="Layer_1" data-name="Layer 1" xmlns="http://www.w3.org/2000/svg" viewBox="0 0 91.93 106.87"><g id="icon2"><path id="Path_51156" data-name="Path 51156" d="M341.28,149.42v11.64H313.35v-25.6H334.3" transform="translate(-253.18 -96.23)" style="fill:none;stroke:#149373;stroke-miterlimit:10;stroke-width:4px"/><rect id="Rectangle_2261" data-name="Rectangle 2261" x="60.28" y="77.87" width="27" height="27" style="fill:none;stroke:#149373;stroke-miterlimit:10;stroke-width:4px"/><path id="Path_51157" data-name="Path 51157" d="M320.33,147.1l7,7,16.28-18.62" transform="translate(-253.18 -96.23)" style="fill:none;stroke:#149373;stroke-miterlimit:10;stroke-width:4px"/><path id="Path_51158" data-name="Path 51158" d="M341.28,112.19v11.64H313.35V98.23H334.3" transform="translate(-253.18 -96.23)" style="fill:none;stroke:#149373;stroke-miterlimit:10;stroke-width:4px"/><path id="Path_51159" data-name="Path 51159" d="M320.33,109.86l7,7L343.6,98.23" transform="translate(-253.18 -96.23)" style="fill:none;stroke:#149373;stroke-miterlimit:10;stroke-width:4px"/><path id="Path_51160" data-name="Path 51160" d="M306.37,179.67H269.14a7,7,0,0,1-7-7h0v-14a8,8,0,0,1,.39-2.91l2.43-3.65a2.32,2.32,0,0,0-.64-3.23,2.8,2.8,0,0,0-.73-.32l-6.1-1.52a2.33,2.33,0,0,1-2.33-2.33h0v-4.66a2.32,2.32,0,0,1,2.33-2.32H267.9a2.34,2.34,0,0,1,1.93,1l3.08,4.62c.45.62,5,3.66,7.87,3.66h25.6" transform="translate(-253.18 -96.23)" style="fill:none;stroke:#149373;stroke-miterlimit:10;stroke-width:4px"/><path id="Path_51161" data-name="Path 51161" d="M306.37,123.83a151.55,151.55,0,0,0-23,1.93,9.17,9.17,0,0,0-4.92,2.72c-1.07,1.27-6.67,13.28-6.67,13.28" transform="translate(-253.18 -96.23)" style="fill:none;stroke:#149373;stroke-miterlimit:10;stroke-width:4px"/><path id="Path_51162" data-name="Path 51162" d="M269.14,156.4h0a15.9,15.9,0,0,0,11.24,4.66h5.05" transform="translate(-253.18 -96.23)" style="fill:none;stroke:#149373;stroke-miterlimit:10;stroke-width:4px"/><path id="Path_51163" data-name="Path 51163" d="M264.49,177.35v9.3a2.32,2.32,0,0,0,2.32,2.33H283.1a2.33,2.33,0,0,0,2.33-2.33v-7" transform="translate(-253.18 -96.23)" style="fill:none;stroke:#149373;stroke-miterlimit:10;stroke-width:4px"/><line id="Line_6" data-name="Line 6" x1="53.28" y1="74.87" x2="32.28" y2="74.87" style="fill:none;stroke:#149373;stroke-miterlimit:10;stroke-width:4px"/></g></svg>