<svg id="Layer_1" data-name="Layer 1" xmlns="http://www.w3.org/2000/svg" viewBox="0 0 106.39 111.69"><g id="icon3"><path id="Path_51146" data-name="Path 51146" d="M324.74,196.53v4.65a2.33,2.33,0,0,0,2.33,2.33H338.7a2.33,2.33,0,0,0,2.33-2.33v-9.31" transform="translate(-245.95 -93.82)" style="fill:none;stroke:#149373;stroke-miterlimit:10;stroke-width:4px"/><path id="Path_51147" data-name="Path 51147" d="M308.45,194.2H280.53a7,7,0,0,1-7-7h0v-6a8,8,0,0,1,2.33-5.62h0v-2.32l-7-1.53a2.32,2.32,0,0,1-2.32-2.33v-3.12a2.32,2.32,0,0,1,2.32-2.33h9.31c.78,0,7.06,7,11.64,7h37.23c4.58,0,10.86-7,11.63-7H348a2.33,2.33,0,0,1,2.33,2.33v3.12a2.33,2.33,0,0,1-2.33,2.33l-7,1.53v2.32h0a8,8,0,0,1,2.33,5.62v6a7,7,0,0,1-7,7H308.45Z" transform="translate(-245.95 -93.82)" style="fill:none;stroke:#149373;stroke-miterlimit:10;stroke-width:4px"/><path id="Path_51148" data-name="Path 51148" d="M334.05,166.28,331,157.09a7,7,0,0,0-6.63-4.78H292.54a7,7,0,0,0-6.62,4.78l-3.06,9.19" transform="translate(-245.95 -93.82)" style="fill:none;stroke:#149373;stroke-miterlimit:10;stroke-width:4px"/><path id="Path_51149" data-name="Path 51149" d="M296.82,187.22h23.27" transform="translate(-245.95 -93.82)" style="fill:none;stroke:#149373;stroke-miterlimit:10;stroke-width:4px"/><path id="Path_51150" data-name="Path 51150" d="M292.16,196.53v4.65a2.32,2.32,0,0,1-2.32,2.33H278.2a2.33,2.33,0,0,1-2.33-2.33v-9.31" transform="translate(-245.95 -93.82)" style="fill:none;stroke:#149373;stroke-miterlimit:10;stroke-width:4px"/><path id="Path_51151" data-name="Path 51151" d="M335.41,176.47a15.9,15.9,0,0,1-10.27,3.77h-2.73" transform="translate(-245.95 -93.82)" style="fill:none;stroke:#149373;stroke-miterlimit:10;stroke-width:4px"/><path id="Path_51152" data-name="Path 51152" d="M281.49,176.47a15.91,15.91,0,0,0,10.28,3.77h2.72" transform="translate(-245.95 -93.82)" style="fill:none;stroke:#149373;stroke-miterlimit:10;stroke-width:4px"/><path id="Path_51153" data-name="Path 51153" d="M268.89,182.57H252.61a4.66,4.66,0,0,1-4.66-4.66h0V119.74H338.7V157" transform="translate(-245.95 -93.82)" style="fill:none;stroke:#149373;stroke-miterlimit:10;stroke-width:4px"/><path id="Path_51154" data-name="Path 51154" d="M259.59,101.12h-7a4.66,4.66,0,0,0-4.66,4.65h0v14H338.7v-14a4.66,4.66,0,0,0-4.65-4.66h-7" transform="translate(-245.95 -93.82)" style="fill:none;stroke:#149373;stroke-miterlimit:10;stroke-width:4px"/><line id="Line_5" data-name="Line 5" x1="67.09" y1="7" x2="27.09" y2="7" style="fill:none;stroke:#149373;stroke-miterlimit:10;stroke-width:4px"/><rect id="Rectangle_2256" data-name="Rectangle 2256" x="13.09" y="2" width="14" height="12" style="fill:none;stroke:#149373;stroke-miterlimit:10;stroke-width:4px"/><rect id="Rectangle_2257" data-name="Rectangle 2257" x="67.09" y="2" width="14" height="12" style="fill:none;stroke:#149373;stroke-miterlimit:10;stroke-width:4px"/><rect id="Rectangle_2258" data-name="Rectangle 2258" x="13.09" y="38" width="17" height="11" style="fill:none;stroke:#149373;stroke-miterlimit:10;stroke-width:4px"/><path id="Path_51155" data-name="Path 51155" d="M259.59,166.28v-14h16.29v7" transform="translate(-245.95 -93.82)" style="fill:none;stroke:#149373;stroke-miterlimit:10;stroke-width:4px"/><rect id="Rectangle_2259" data-name="Rectangle 2259" x="40.09" y="38" width="16" height="11" style="fill:none;stroke:#149373;stroke-miterlimit:10;stroke-width:4px"/><rect id="Rectangle_2260" data-name="Rectangle 2260" x="65.09" y="38" width="16" height="11" style="fill:none;stroke:#149373;stroke-miterlimit:10;stroke-width:4px"/></g></svg>