<svg id="Layer_1" data-name="Layer 1" xmlns="http://www.w3.org/2000/svg" viewBox="0 0 97.08 108.7"><g id="icon4"><path id="Path_51164" data-name="Path 51164" d="M278.21,97.31V113.6h-14V97.31c-7.28,0-11.64,6.37-11.64,14v4.66a14.49,14.49,0,0,0,9.31,14v62.82a9.31,9.31,0,1,0,18.61,0V129.89a14.49,14.49,0,0,0,9.31-14v-4.66C289.84,103.68,285.48,97.31,278.21,97.31Z" transform="translate(-250.6 -95.31)" style="fill:none;stroke:#149373;stroke-linejoin:round;stroke-width:4px"/><line id="Line_7" data-name="Line 7" x1="20.45" y1="92.71" x2="20.45" y2="97.71" style="fill:none;stroke:#149373;stroke-linejoin:round;stroke-width:4px"/><path id="Path_51165" data-name="Path 51165" d="M285.19,176.43h46.54a7,7,0,0,0,7-7h0v-14a8,8,0,0,0-.39-2.92l-2.44-3.64a2.33,2.33,0,0,1,.65-3.23,2.17,2.17,0,0,1,.73-.32l6.1-1.53a2.32,2.32,0,0,0,2.32-2.33v-4.65a2.34,2.34,0,0,0-2.32-2.33H333a2.31,2.31,0,0,0-1.93,1L328,140.19c-.45.62-5,3.66-7.87,3.66h-34.9" transform="translate(-250.6 -95.31)" style="fill:none;stroke:#149373;stroke-miterlimit:10;stroke-width:4px"/><path id="Path_51166" data-name="Path 51166" d="M294.5,120.58a151.56,151.56,0,0,1,23,1.94,9.21,9.21,0,0,1,4.92,2.72c1.07,1.26,6.66,13.27,6.66,13.27" transform="translate(-250.6 -95.31)" style="fill:none;stroke:#149373;stroke-miterlimit:10;stroke-width:4px"/><path id="Path_51167" data-name="Path 51167" d="M331.73,153.16h0a15.89,15.89,0,0,1-11.24,4.65h-5.05" transform="translate(-250.6 -95.31)" style="fill:none;stroke:#149373;stroke-miterlimit:10;stroke-width:4px"/><path id="Path_51168" data-name="Path 51168" d="M336.38,174.1v9.31a2.34,2.34,0,0,1-2.33,2.33H317.77a2.34,2.34,0,0,1-2.33-2.33v-7" transform="translate(-250.6 -95.31)" style="fill:none;stroke:#149373;stroke-miterlimit:10;stroke-width:4px"/><line id="Line_8" data-name="Line 8" x1="35.45" y1="71.71" x2="65.45" y2="71.71" style="fill:none;stroke:#149373;stroke-miterlimit:10;stroke-width:4px"/></g></svg>