<svg id="Layer_1" data-name="Layer 1" xmlns="http://www.w3.org/2000/svg" viewBox="0 0 97 97"><g id="btn_phone" data-name="btn phone"><circle id="Ellipse_1" data-name="Ellipse 1" cx="48.5" cy="48.5" r="48.5" style="fill:#149373"/><path id="phone" d="M286.46,146.64a35,35,0,0,0,15.27,15.28l5.1-5.1a2.32,2.32,0,0,1,2.37-.58,26.4,26.4,0,0,0,8.27,1.32,2.32,2.32,0,0,1,2.32,2.32h0V168a2.32,2.32,0,0,1-2.32,2.32,39.4,39.4,0,0,1-39.4-39.4,2.32,2.32,0,0,1,2.32-2.32h8.11a2.32,2.32,0,0,1,2.32,2.32,26.12,26.12,0,0,0,1.32,8.27,2.34,2.34,0,0,1-.58,2.37Z" transform="translate(-251.14 -101.66)" style="fill:#f6fcfc"/></g></svg>