<svg id="Layer_1" data-name="Layer 1" xmlns="http://www.w3.org/2000/svg" viewBox="0 0 16 16"><rect x="9.49" y="4.76" width="6.48" height="6.48" style="fill:#0b9373"/><path d="M.7,8.64a.85.85,0,0,1,.29,0,.55.55,0,0,1,.2.11A.52.52,0,0,1,1.31,9a.65.65,0,0,1,0,.21.78.78,0,0,1,0,.22.66.66,0,0,1-.12.17.55.55,0,0,1-.2.11.85.85,0,0,1-.29,0H.51v.54H.13V8.64Zm0,.79a.25.25,0,0,0,.21-.07A.29.29,0,0,0,1,9.17a.41.41,0,0,0,0-.11L.91,9a.26.26,0,0,0-.09-.05l-.12,0H.51v.51Z" style="fill:#0b9373"/><path d="M3,10.25H2.69a.17.17,0,0,1-.14-.07l-.26-.47,0,0-.07,0h-.1v.6H1.71V8.64h.52a.87.87,0,0,1,.3,0,.42.42,0,0,1,.2.1.33.33,0,0,1,.11.15.41.41,0,0,1,0,.19.59.59,0,0,1,0,.14l-.06.13a.52.52,0,0,1-.1.11l-.14.07.07,0a.18.18,0,0,1,.05.07Zm-.8-.85.13,0a.2.2,0,0,0,.09-.06.22.22,0,0,0,0-.08.3.3,0,0,0,0-.1A.22.22,0,0,0,2.45,9a.34.34,0,0,0-.22-.06H2.08V9.4Z" style="fill:#0b9373"/><path d="M4.88,9.44a.88.88,0,0,1-.06.33.73.73,0,0,1-.17.26.78.78,0,0,1-.26.17.9.9,0,0,1-.34.06.93.93,0,0,1-.34-.06A.78.78,0,0,1,3.45,10a.73.73,0,0,1-.17-.26.88.88,0,0,1-.06-.33.87.87,0,0,1,.06-.32.65.65,0,0,1,.17-.26.78.78,0,0,1,.26-.17.77.77,0,0,1,.34-.07.74.74,0,0,1,.34.07.78.78,0,0,1,.26.17.65.65,0,0,1,.17.26A.87.87,0,0,1,4.88,9.44Zm-.38,0a.66.66,0,0,0,0-.21.42.42,0,0,0-.09-.16A.28.28,0,0,0,4.24,9a.47.47,0,0,0-.38,0,.24.24,0,0,0-.14.1.42.42,0,0,0-.09.16.66.66,0,0,0,0,.21.78.78,0,0,0,0,.22.42.42,0,0,0,.09.16.3.3,0,0,0,.14.1.47.47,0,0,0,.38,0,.36.36,0,0,0,.14-.1.42.42,0,0,0,.09-.16A.78.78,0,0,0,4.5,9.44Z" style="fill:#0b9373"/><path d="M5.65,8.93v.4H6.2v.29H5.65v.63H5.28V8.64h1v.29Z" style="fill:#0b9373"/><path d="M7.08,10.25H6.7V8.64h.38Z" style="fill:#0b9373"/><path d="M8.72,8.94H8.27v1.31H7.89V8.94H7.44v-.3H8.72Z" style="fill:#0b9373"/><path d="M11.58,9.83h.05l.15.16a.57.57,0,0,1-.24.19.91.91,0,0,1-.35.06.88.88,0,0,1-.33-.06.81.81,0,0,1-.24-.17.76.76,0,0,1-.16-.26,1.14,1.14,0,0,1-.05-.33.88.88,0,0,1,.06-.33.87.87,0,0,1,.16-.26.78.78,0,0,1,.26-.17.79.79,0,0,1,.32-.06l.17,0,.15,0,.13.07.1.09L11.64,9l0,0,0,0h0l0,0-.05,0,0,0-.08,0h-.1A.33.33,0,0,0,11,9a.3.3,0,0,0-.13.09.46.46,0,0,0-.09.17.66.66,0,0,0,0,.21.48.48,0,0,0,0,.22.35.35,0,0,0,.09.16.26.26,0,0,0,.13.1.33.33,0,0,0,.17,0h.17l.07,0,.06-.05,0,0Z" style="fill:#fff"/><path d="M13.56,10.25h-.29a.11.11,0,0,1-.08,0,.1.1,0,0,1,0-.05l-.1-.28h-.61l-.09.28,0,.05a.09.09,0,0,1-.07,0h-.29l.62-1.61h.38ZM13,9.63l-.15-.44a.69.69,0,0,0,0-.1l0-.12s0,.09,0,.13l0,.1-.15.43Z" style="fill:#fff"/><path d="M15.18,10.25h-.34a.17.17,0,0,1-.14-.07l-.26-.47s0,0,0,0l-.07,0h-.1v.6h-.37V8.64h.52a.87.87,0,0,1,.3,0,.42.42,0,0,1,.2.1.44.44,0,0,1,.12.15.58.58,0,0,1,0,.19.59.59,0,0,1,0,.14.52.52,0,0,1-.06.13.52.52,0,0,1-.1.11l-.14.07.07,0a.18.18,0,0,1,.05.07Zm-.8-.85.13,0a.2.2,0,0,0,.09-.06.22.22,0,0,0,.05-.08.3.3,0,0,0,0-.1A.22.22,0,0,0,14.6,9a.34.34,0,0,0-.22-.06h-.15V9.4Z" style="fill:#fff"/><path d="M.22,10.78H.29a.05.05,0,0,1,0,0s0,0,0,0,0,0,0,0a0,0,0,0,1,0,0,0,0,0,0,1,0,0l0,0,0,0a.09.09,0,0,1,.07,0,.11.11,0,0,1,0,.06.07.07,0,0,1,0,.05s0,0,0,0l0,0H.09v-.42Zm-.08.05V11H.29l0,0v0a.08.08,0,0,0,0-.06H.14Zm.09.33H.3l0,0v0A.05.05,0,0,0,.3,11L.23,11H.14v.15Z" style="fill:#0b9373"/><path d="M.66,11H.72l.05,0,0,0a.43.43,0,0,1,0,.05s0,0,0,.05l0,0-.05,0H.52v-.42H.58V11Zm0,.2H.73a0,0,0,0,0,0,0,0,0,0,0,0,0-.06s0,0,0,0l0,0H.58v.15Zm.28,0H.88v-.42H.94Z" style="fill:#0b9373"/><path d="M1.44,11.2H1.37v0L1.25,11l0,0H1.16v.19H1.1v-.42h.06V11h.08l.11-.15a0,0,0,0,1,0,0h.07L1.3,11s0,0,0,0l0,0,0,0Z" style="fill:#0b9373"/><path d="M1.86,10.78l-.17.37,0,0H1.6s0,0,0,0h0v0h.06s0,0,0,0l0,0-.16-.3h.07l.1.2,0,0v0l.08-.2h.07Z" style="fill:#0b9373"/><path d="M2.29,11.2H2.23v-.37H2v.37H2v-.42h.32Z" style="fill:#0b9373"/><path d="M3,10.78v.42H2.94v-.31l-.2.29v0h0v-.42h0v.31l.2-.29H3Z" style="fill:#0b9373"/><path d="M3.69,11.2H3.63v-.37H3.42v.37H3.36v-.42h.33Z" style="fill:#0b9373"/><path d="M4,10.78H4l0,0,0,0a.43.43,0,0,1,0,.05s0,0,0,.06l0,0,0,0-.07,0H3.9v.15h0v-.42ZM4,11H4s0,0,0,0a0,0,0,0,0,0,0,.06.06,0,0,0,0,0,.08.08,0,0,0-.1-.08H3.9V11Z" style="fill:#0b9373"/><path d="M4.64,11a.15.15,0,0,1,0,.09.16.16,0,0,1,0,.07l-.06,0-.09,0-.08,0-.07,0a.16.16,0,0,1,0-.07.29.29,0,0,1,0-.09.19.19,0,0,1,0-.08.16.16,0,0,1,0-.07.18.18,0,0,1,.07-.05h.17l.06.05a.16.16,0,0,1,0,.07A.11.11,0,0,1,4.64,11Zm-.06,0a.17.17,0,0,0,0-.07l0-.05,0,0H4.37l0,0,0,.05s0,.05,0,.07,0,0,0,.07l0,0,0,0h.12a.1.1,0,0,0,0,0l0,0A.15.15,0,0,0,4.58,11Z" style="fill:#0b9373"/><path d="M5.15,11.16v.13H5.1v-.1H4.76v.09a0,0,0,0,1,0,0h0v-.14h0l0,0,0,0s0,0,0,0a.15.15,0,0,0,0-.07s0-.06,0-.09v-.13h.25v.38Zm-.13,0v-.33H4.89a.53.53,0,0,0,0,.12s0,.07,0,.1,0,0,0,.06,0,0,0,.05Z" style="fill:#0b9373"/><path d="M5.62,11.2H5.55l0-.1H5.32l0,.1H5.22l.17-.42h.06Zm-.12-.15-.07-.18h0v0a0,0,0,0,0,0,0l-.07.18Z" style="fill:#0b9373"/><path d="M6.27,11.2H6.21v0L6.09,11v0H6v.19H6V11H5.87v0l-.11.15,0,0H5.67L5.8,11l0,0,0,0h0s0,0,0,0l-.13-.17h.08l.1.14,0,0H6v-.19H6V11h.07l0,0,.1-.14a0,0,0,0,1,0,0h.06L6.14,11s0,0,0,0h0l0,0,0,0Z" style="fill:#0b9373"/><path d="M6.73,11.2H6.66l0-.1H6.44l0,.1H6.33l.17-.42h.06Zm-.12-.15-.07-.18h0v0l-.07.18Z" style="fill:#0b9373"/><path d="M7.38,11.2H7.32l0-.1H7.09l0,.1H7l.16-.42h.06Zm-.12-.15-.06-.18h0v0l-.07.18Z" style="fill:#0b9373"/><path d="M7.62,10.78h.07l0,0a.05.05,0,0,1,0,0s0,0,0,0v0l0,0s0,0,0,0l0,0a.08.08,0,0,1,.07,0,.07.07,0,0,1,0,.06.43.43,0,0,1,0,.05l0,0,0,0H7.49v-.42Zm-.07.05V11h.14l0,0v0s0-.05,0-.06H7.55Zm.09.33h.07v0a0,0,0,0,0,0,0,.08.08,0,0,0,0-.05l-.07,0H7.55v.15Z" style="fill:#0b9373"/><path d="M8.2,10.83H8.06v.37H8v-.37H7.87v-.05H8.2Z" style="fill:#0b9373"/><path d="M8.68,11a.28.28,0,0,1,0,.09.43.43,0,0,1,0,.07l-.07,0-.08,0-.09,0-.07,0a.43.43,0,0,1,0-.07.28.28,0,0,1,0-.09.19.19,0,0,1,0-.08.43.43,0,0,1,0-.07l.07-.05h.17a.18.18,0,0,1,.07.05.43.43,0,0,1,0,.07A.19.19,0,0,1,8.68,11Zm-.06,0a.17.17,0,0,0,0-.07.05.05,0,0,0,0-.05l0,0H8.41l0,0a.05.05,0,0,0,0,.05.17.17,0,0,0,0,.07.15.15,0,0,0,0,.07.05.05,0,0,0,0,0l0,0h.13s0,0,0,0a.05.05,0,0,0,0,0A.15.15,0,0,0,8.62,11Z" style="fill:#0b9373"/><path d="M12.83,6.58c-.63-.08-2.24-.07-2.77-.22s-.54-.26-1.23-.51a10.3,10.3,0,0,0-2.54-.52A11.63,11.63,0,0,0,1.59,6C1.32,6,1,6.1.94,6.12a1.06,1.06,0,0,0-.6.44,1.09,1.09,0,0,0-.19.72.94.94,0,0,0,.32.63A1.59,1.59,0,0,1,.4,7.28a1.35,1.35,0,0,1,.2-.54A1.21,1.21,0,0,1,1,6.36a1.4,1.4,0,0,1,.36-.13l5.9.38L3.05,6.15a7.72,7.72,0,0,1,2.51-.58,8.68,8.68,0,0,1,3.38.55l.19.08.21.09-.15.14A.61.61,0,0,0,9,6.31c-.2-.08-.49-.07-.55,0s0,.18.08.23a.59.59,0,0,0,.56,0,14.36,14.36,0,0,1,2.07,0,14.2,14.2,0,0,1,1.93.29,2,2,0,0,0-1,.27,1.5,1.5,0,0,0-.53.56,16.38,16.38,0,0,0-1.66-.52,18.94,18.94,0,0,0-6.42-.47l5,.48,3.08.86a1.5,1.5,0,0,1,.83-.84,2.31,2.31,0,0,1,2.36.49A3.21,3.21,0,0,0,12.83,6.58Z" style="fill:#0b9373"/><path d="M14.86,7.8a3.2,3.2,0,0,0-2-1.15c-.62-.08-2.23-.08-2.77-.23a2.7,2.7,0,0,1-.64-.26v.49a15.42,15.42,0,0,1,1.76,0A13.93,13.93,0,0,1,13.16,7a2,2,0,0,0-1,.28,1.38,1.38,0,0,0-.52.56A15.5,15.5,0,0,0,10,7.29l-.5-.12v.37l2.18.62a1.57,1.57,0,0,1,.84-.85A2.36,2.36,0,0,1,14.86,7.8Z" style="fill:#fff"/><path d="M.81,7.85a1.8,1.8,0,0,1,1.36-1A1.56,1.56,0,0,1,3,7.07a1.73,1.73,0,0,1,.62.58,2.13,2.13,0,0,0-1.45-.49A2.59,2.59,0,0,0,.81,7.85Z" style="fill:#0b9373"/></svg>