<svg id="Layer_1" data-name="Layer 1" xmlns="http://www.w3.org/2000/svg" viewBox="0 0 64 64"><rect x="37.72" y="19.02" width="25.72" height="25.72" style="fill:#0b9373"/><path d="M2.83,34.43A3.91,3.91,0,0,1,4,34.59a2.45,2.45,0,0,1,.8.44,1.88,1.88,0,0,1,.46.66,2.56,2.56,0,0,1,0,1.7,1.77,1.77,0,0,1-.47.68,2.24,2.24,0,0,1-.79.45,4,4,0,0,1-1.15.15H2.06V40.8H.59V34.43Zm0,3.13a1.05,1.05,0,0,0,.83-.28,1.09,1.09,0,0,0,.26-.77,1.23,1.23,0,0,0-.07-.39.79.79,0,0,0-.2-.31.88.88,0,0,0-.34-.2,1.35,1.35,0,0,0-.48-.07H2.06v2Z" style="fill:#0b9373"/><path d="M12.06,40.8H10.72a.55.55,0,0,1-.53-.28L9.13,38.67A.69.69,0,0,0,9,38.5a.48.48,0,0,0-.26,0H8.32V40.8H6.85V34.43H8.92a4.08,4.08,0,0,1,1.18.15,2.09,2.09,0,0,1,.79.39,1.44,1.44,0,0,1,.45.6,2,2,0,0,1,.14.75,2.27,2.27,0,0,1-.08.59,2,2,0,0,1-.25.51,2.25,2.25,0,0,1-.4.42,2.22,2.22,0,0,1-.55.3,1.67,1.67,0,0,1,.28.18,1.52,1.52,0,0,1,.22.27ZM8.92,37.43a1.52,1.52,0,0,0,.51-.08.93.93,0,0,0,.35-.21,1,1,0,0,0,.2-.32,1.23,1.23,0,0,0,.06-.39.8.8,0,0,0-.27-.65,1.29,1.29,0,0,0-.85-.24h-.6v1.89Z" style="fill:#0b9373"/><path d="M19.44,37.62a3.6,3.6,0,0,1-.24,1.28,3.16,3.16,0,0,1-.67,1,3.07,3.07,0,0,1-1.05.7,3.61,3.61,0,0,1-1.35.24,3.7,3.7,0,0,1-1.36-.24,3.13,3.13,0,0,1-1-.7,3,3,0,0,1-.68-1,3.38,3.38,0,0,1-.23-1.28,3.44,3.44,0,0,1,.23-1.29,3.13,3.13,0,0,1,.68-1,3.26,3.26,0,0,1,1-.69,3.7,3.7,0,0,1,1.36-.25,3.61,3.61,0,0,1,1.35.25,3.2,3.2,0,0,1,1.05.69,3.27,3.27,0,0,1,.67,1A3.65,3.65,0,0,1,19.44,37.62Zm-1.52,0a2.77,2.77,0,0,0-.12-.85,1.84,1.84,0,0,0-.35-.65,1.74,1.74,0,0,0-.56-.4,2.06,2.06,0,0,0-.76-.14,2,2,0,0,0-.76.14,1.58,1.58,0,0,0-.57.4,1.84,1.84,0,0,0-.35.65,2.77,2.77,0,0,0-.12.85,2.82,2.82,0,0,0,.12.85,1.79,1.79,0,0,0,.35.64,1.37,1.37,0,0,0,.57.4,2,2,0,0,0,.76.14,2.06,2.06,0,0,0,.76-.14,1.48,1.48,0,0,0,.56-.4,1.79,1.79,0,0,0,.35-.64A2.82,2.82,0,0,0,17.92,37.62Z" style="fill:#0b9373"/><path d="M22.49,35.57v1.61h2.18v1.14H22.49V40.8H21V34.43h4.1v1.14Z" style="fill:#0b9373"/><path d="M28.14,40.8H26.66V34.43h1.48Z" style="fill:#0b9373"/><path d="M34.66,35.61h-1.8V40.8H31.38V35.61H29.59V34.43h5.07Z" style="fill:#0b9373"/><path d="M46,39.16a.18.18,0,0,1,.1,0,.21.21,0,0,1,.1.06l.59.62a2.41,2.41,0,0,1-1,.76,3.76,3.76,0,0,1-2.67,0,2.72,2.72,0,0,1-1-.69,2.9,2.9,0,0,1-.62-1,3.84,3.84,0,0,1-.21-1.29,3.43,3.43,0,0,1,.23-1.31,3,3,0,0,1,1.66-1.71,3.37,3.37,0,0,1,1.29-.24,2.87,2.87,0,0,1,.67.07,3.78,3.78,0,0,1,.6.17,3.38,3.38,0,0,1,.5.27,2.85,2.85,0,0,1,.41.34l-.5.67a.38.38,0,0,1-.11.11.3.3,0,0,1-.18,0,.37.37,0,0,1-.15,0,1.19,1.19,0,0,1-.15-.09l-.17-.11-.23-.11a1.87,1.87,0,0,0-1.37,0,1.46,1.46,0,0,0-.53.39,2.05,2.05,0,0,0-.34.64,2.86,2.86,0,0,0-.12.87,2.65,2.65,0,0,0,.14.87,1.75,1.75,0,0,0,.36.64,1.55,1.55,0,0,0,.53.39,1.66,1.66,0,0,0,.66.14l.37,0a1.55,1.55,0,0,0,.31-.07l.27-.12a1.88,1.88,0,0,0,.26-.19l.11-.08A.27.27,0,0,1,46,39.16Z" style="fill:#fff"/><path d="M53.87,40.8H52.72a.5.5,0,0,1-.31-.09.55.55,0,0,1-.18-.22l-.37-1.12H49.43l-.37,1.12a.52.52,0,0,1-.18.22.49.49,0,0,1-.3.09H47.42l2.47-6.37H51.4Zm-2.35-2.43-.59-1.75c0-.11-.09-.24-.14-.39s-.1-.31-.15-.49a5.07,5.07,0,0,1-.14.5c0,.15-.1.28-.14.39l-.58,1.74Z" style="fill:#fff"/><path d="M60.28,40.8H58.94a.57.57,0,0,1-.53-.28l-1.06-1.85a.66.66,0,0,0-.16-.17.5.5,0,0,0-.27,0h-.37V40.8H55.07V34.43h2.07a4,4,0,0,1,1.18.15,2.14,2.14,0,0,1,.8.39,1.64,1.64,0,0,1,.45.6,2,2,0,0,1,.14.75,1.92,1.92,0,0,1-.09.59,1.7,1.7,0,0,1-.24.51,2.25,2.25,0,0,1-.4.42,2.22,2.22,0,0,1-.55.3,1.59,1.59,0,0,1,.27.18,1.55,1.55,0,0,1,.23.27Zm-3.14-3.37a1.58,1.58,0,0,0,.52-.08,1,1,0,0,0,.35-.21.94.94,0,0,0,.19-.32,1.23,1.23,0,0,0,.06-.39.8.8,0,0,0-.27-.65,1.27,1.27,0,0,0-.85-.24h-.59v1.89Z" style="fill:#fff"/><path d="M.93,42.93a1,1,0,0,1,.26,0,.61.61,0,0,1,.18.08.36.36,0,0,1,.11.14.48.48,0,0,1,0,.18.25.25,0,0,1,0,.12.37.37,0,0,1-.05.11l-.1.09-.14.06a.49.49,0,0,1,.28.13.35.35,0,0,1,.09.25.45.45,0,0,1,0,.2.39.39,0,0,1-.11.15.48.48,0,0,1-.19.09.62.62,0,0,1-.25,0H.39V42.93Zm-.31.18v.57h.3l.16,0,.12-.06.07-.09a.5.5,0,0,0,0-.12.27.27,0,0,0-.09-.22.49.49,0,0,0-.27-.06ZM1,44.42l.17,0a.41.41,0,0,0,.11-.07.22.22,0,0,0,.07-.09.5.5,0,0,0,0-.12.26.26,0,0,0-.09-.21A.47.47,0,0,0,1,43.84H.62v.58Z" style="fill:#0b9373"/><path d="M2.66,43.65a1,1,0,0,1,.26,0,.48.48,0,0,1,.19.09.4.4,0,0,1,.1.15.34.34,0,0,1,0,.18.65.65,0,0,1,0,.2.33.33,0,0,1-.12.16.35.35,0,0,1-.18.1.66.66,0,0,1-.25,0H2.11V42.93h.23v.72Zm0,.77.17,0,.11-.06a.21.21,0,0,0,.06-.1.27.27,0,0,0,0-.12A.28.28,0,0,0,3,44a.24.24,0,0,0-.06-.09l-.11,0a.44.44,0,0,0-.17,0H2.34v.59Zm1.12.18H3.56V42.93h.22Z" style="fill:#0b9373"/><path d="M5.75,44.6h-.2l-.06,0,0,0L5,43.91l-.06-.06-.1,0h-.2v.77H4.42V42.93h.22v.73h.18l.09,0L5,43.58,5.42,43a.08.08,0,0,1,0,0s0,0,.06,0h.19l-.51.68a.24.24,0,0,1-.15.11.29.29,0,0,1,.11.06.21.21,0,0,1,.08.1Z" style="fill:#0b9373"/><path d="M7.44,42.93l-.68,1.45a.52.52,0,0,1-.07.11s-.05.06-.08.07a.18.18,0,0,1-.09,0h-.2a0,0,0,0,1,0,0v-.14h.14l.06,0,0,0s0,0,0-.07l.09-.17L6,42.93h.25a.05.05,0,0,1,0,0l.42.76a.87.87,0,0,1,.07.17l0-.09,0-.08L7.17,43l0,0h.24Z" style="fill:#0b9373"/><path d="M9.15,44.6H8.92V43.11H8.09V44.6H7.86V42.93H9.15Z" style="fill:#0b9373"/><path d="M11.94,42.93V44.6h-.22V43.31s0-.08,0-.12a1,1,0,0,1,0,.1.56.56,0,0,1,0,.08l-.78,1.16,0,0-.06,0h-.17V42.93h.23v1.18a.41.41,0,0,1,0,.11v.12a.3.3,0,0,1,0-.1l0-.08L11.67,43l.05,0s0,0,.06,0Z" style="fill:#0b9373"/><path d="M14.68,44.6h-.23V43.11h-.83V44.6h-.23V42.93h1.29Z" style="fill:#0b9373"/><path d="M15.81,42.93a.73.73,0,0,1,.27,0,.42.42,0,0,1,.2.1.36.36,0,0,1,.11.16.49.49,0,0,1,0,.21.54.54,0,0,1,0,.22.66.66,0,0,1-.12.17.57.57,0,0,1-.19.1.77.77,0,0,1-.27,0h-.27v.63h-.22V42.93Zm0,.86a.47.47,0,0,0,.17,0,.35.35,0,0,0,.12-.07.38.38,0,0,0,.08-.11.37.37,0,0,0,0-.15.36.36,0,0,0-.1-.25.51.51,0,0,0-.3-.08h-.27v.68Z" style="fill:#0b9373"/><path d="M18.47,43.76a1,1,0,0,1-.06.35,1,1,0,0,1-.17.27.78.78,0,0,1-.26.17.74.74,0,0,1-.34.07.72.72,0,0,1-.33-.07.78.78,0,0,1-.26-.17,1,1,0,0,1-.17-.27,1,1,0,0,1-.06-.35.93.93,0,0,1,.06-.34.73.73,0,0,1,.17-.27.68.68,0,0,1,.26-.18.88.88,0,0,1,.33-.06A.9.9,0,0,1,18,43a.68.68,0,0,1,.26.18.73.73,0,0,1,.17.27A.93.93,0,0,1,18.47,43.76Zm-.24,0a.77.77,0,0,0,0-.27.55.55,0,0,0-.12-.21.46.46,0,0,0-.18-.13.66.66,0,0,0-.25,0,.61.61,0,0,0-.24,0,.5.5,0,0,0-.19.13.72.72,0,0,0-.12.21.77.77,0,0,0,0,.27.79.79,0,0,0,0,.28.72.72,0,0,0,.12.21.91.91,0,0,0,.19.13.86.86,0,0,0,.24,0,.93.93,0,0,0,.25,0,.83.83,0,0,0,.18-.13.55.55,0,0,0,.12-.21A.79.79,0,0,0,18.23,43.76Z" style="fill:#0b9373"/><path d="M20.5,44.42v.52s0,0,0,.05l-.06,0h-.13V44.6H18.94v.34s0,0,0,.05l-.05,0h-.14v-.59h.17a.21.21,0,0,0,.08-.06.72.72,0,0,0,.07-.11,1.89,1.89,0,0,0,.06-.18,1.64,1.64,0,0,0,.05-.27,3.43,3.43,0,0,0,0-.38c0-.14,0-.31,0-.49h1v1.49Zm-.51,0V43.11h-.55c0,.19,0,.35,0,.5a2.86,2.86,0,0,1-.06.37,1.46,1.46,0,0,1-.08.27.87.87,0,0,1-.09.17Z" style="fill:#0b9373"/><path d="M22.34,44.6h-.18l0,0s0,0,0,0l-.16-.4h-.75l-.15.4,0,0-.05,0h-.18l.67-1.67h.23ZM21.87,44l-.26-.68,0-.07s0-.06,0-.09l0,.16-.27.68Z" style="fill:#0b9373"/><path d="M25,44.6H24.8l-.08,0-.06-.06-.42-.59a.29.29,0,0,0-.07-.08l-.11,0h-.19v.77h-.21v-.77h-.2l-.1,0a.19.19,0,0,0-.07.08l-.42.59-.06.06-.09,0h-.15l.5-.73a.24.24,0,0,1,.08-.09.33.33,0,0,1,.1-.06l-.09,0-.06-.08-.49-.67h.18a.07.07,0,0,1,.06,0,.1.1,0,0,1,0,0l.42.59a.21.21,0,0,0,.08.06l.09,0h.17v-.73h.21v.73H24l.09,0,.08-.06.41-.59.05,0a.1.1,0,0,1,.07,0h.18l-.49.67-.07.08a.2.2,0,0,1-.08,0,.53.53,0,0,1,.1.06.36.36,0,0,1,.08.09Z" style="fill:#0b9373"/><path d="M26.75,44.6h-.17l0,0,0,0-.16-.4H25.6l-.16.4s0,0,0,0l-.05,0h-.17l.67-1.67h.23ZM26.28,44,26,43.3l0-.07a.29.29,0,0,0,0-.09,1,1,0,0,1,0,.16l-.26.68Z" style="fill:#0b9373"/><path d="M29.34,44.6h-.17l-.05,0,0,0-.15-.4h-.75l-.16.4s0,0,0,0l-.05,0h-.17l.67-1.67h.23ZM28.87,44l-.26-.68a.19.19,0,0,1,0-.07l0-.09a.5.5,0,0,1,0,.16l-.26.68Z" style="fill:#0b9373"/><path d="M30.31,42.93a1,1,0,0,1,.26,0,.61.61,0,0,1,.18.08.36.36,0,0,1,.11.14.48.48,0,0,1,0,.18.25.25,0,0,1,0,.12.37.37,0,0,1-.05.11l-.1.09-.14.06a.52.52,0,0,1,.28.13.35.35,0,0,1,.09.25.45.45,0,0,1,0,.2.39.39,0,0,1-.11.15.56.56,0,0,1-.19.09.62.62,0,0,1-.25,0h-.59V42.93Zm-.31.18v.57h.3l.16,0,.12-.06.07-.09a.5.5,0,0,0,0-.12.27.27,0,0,0-.09-.22.49.49,0,0,0-.27-.06Zm.36,1.31.17,0a.41.41,0,0,0,.11-.07.22.22,0,0,0,.07-.09.5.5,0,0,0,0-.12.26.26,0,0,0-.09-.21.47.47,0,0,0-.28-.07H30v.58Z" style="fill:#0b9373"/><path d="M32.59,43.12H32V44.6h-.22V43.12h-.54v-.19h1.31Z" style="fill:#0b9373"/><path d="M34.51,43.76a1,1,0,0,1-.06.35.92.92,0,0,1-.16.27,1,1,0,0,1-.27.17.72.72,0,0,1-.33.07.77.77,0,0,1-.34-.07.78.78,0,0,1-.26-.17,1,1,0,0,1-.17-.27,1,1,0,0,1-.06-.35.93.93,0,0,1,.06-.34.73.73,0,0,1,.17-.27.68.68,0,0,1,.26-.18.93.93,0,0,1,.34-.06A.88.88,0,0,1,34,43a.8.8,0,0,1,.27.18.72.72,0,0,1,.16.27A.93.93,0,0,1,34.51,43.76Zm-.23,0a.77.77,0,0,0,0-.27.72.72,0,0,0-.12-.21.5.5,0,0,0-.19-.13.61.61,0,0,0-.24,0,.69.69,0,0,0-.25,0,.46.46,0,0,0-.18.13.45.45,0,0,0-.12.21.77.77,0,0,0,0,.27.79.79,0,0,0,0,.28.45.45,0,0,0,.12.21.83.83,0,0,0,.18.13,1,1,0,0,0,.25,0,.86.86,0,0,0,.24,0,.91.91,0,0,0,.19-.13.72.72,0,0,0,.12-.21A.79.79,0,0,0,34.28,43.76Z" style="fill:#0b9373"/><path d="M51,26.27c-2.47-.33-8.87-.29-11-.9s-2.16-1-4.87-2A42.94,42.94,0,0,0,25,21.27,47.06,47.06,0,0,0,6.37,24c-1.07.14-2.22.36-2.58.45a4.39,4.39,0,0,0-2.4,1.73A4.3,4.3,0,0,0,.65,29a3.72,3.72,0,0,0,1.26,2.5A6.1,6.1,0,0,1,1.66,29a4.69,4.69,0,0,1,2.49-3.65,5.43,5.43,0,0,1,1.42-.5L29,26.36,12.15,24.55a30.48,30.48,0,0,1,10-2.31,34.69,34.69,0,0,1,13.41,2.17l.78.34c.29.12.56.25.8.36l-.57.56a2.18,2.18,0,0,0-.73-.48c-.76-.31-1.92-.3-2.19.13s.06.68.32.9a2.3,2.3,0,0,0,2.24.14,58.39,58.39,0,0,1,8.22.06,59.5,59.5,0,0,1,7.66,1.13,7.89,7.89,0,0,0-4,1.1A5.53,5.53,0,0,0,46,30.87,66,66,0,0,0,39.4,28.8a74.15,74.15,0,0,0-25.5-1.86l20,1.88,12.19,3.43a6.17,6.17,0,0,1,3.32-3.34,9.25,9.25,0,0,1,9.37,1.93C55.78,27.51,53,26.54,51,26.27Z" style="fill:#0b9373"/><path d="M59,31.09c-3-3.32-5.78-4.3-7.8-4.57-2.47-.33-8.86-.29-11-.9a12.13,12.13,0,0,1-2.54-1v1.95a57.54,57.54,0,0,1,7,.13,56,56,0,0,1,7.66,1.13,7.76,7.76,0,0,0-4,1.09,5.49,5.49,0,0,0-2.08,2.23,66.75,66.75,0,0,0-6.59-2.08c-.7-.18-1.36-.33-2-.47v1.49l8.65,2.44a6.14,6.14,0,0,1,3.31-3.34A9.27,9.27,0,0,1,59,31.09Z" style="fill:#fff"/><path d="M3.27,31.31a7.56,7.56,0,0,1,2.17-2.55,6.32,6.32,0,0,1,3.21-1.28,6,6,0,0,1,3.4.73,6.89,6.89,0,0,1,2.45,2.28A13.45,13.45,0,0,0,11.7,29a6.43,6.43,0,0,0-2.95-.42,7,7,0,0,0-2.86.91A17.35,17.35,0,0,0,3.27,31.31Z" style="fill:#0b9373"/></svg>