<svg id="Layer_1" data-name="Layer 1" xmlns="http://www.w3.org/2000/svg" viewBox="0 0 48 48"><rect x="28.35" y="14.03" width="19.33" height="19.33" style="fill:#0b9373"/><path d="M2.12,25.61a2.77,2.77,0,0,1,.87.12,1.64,1.64,0,0,1,.6.33,1.26,1.26,0,0,1,.35.5,1.74,1.74,0,0,1,.11.61,2,2,0,0,1-.11.66,1.32,1.32,0,0,1-.36.51,1.45,1.45,0,0,1-.6.34,2.7,2.7,0,0,1-.86.12H1.55v1.6H.44V25.61Zm0,2.35a.83.83,0,0,0,.63-.21.81.81,0,0,0,.19-.58.94.94,0,0,0,0-.3.57.57,0,0,0-.15-.23.87.87,0,0,0-.25-.15,1.38,1.38,0,0,0-.37,0H1.55V28Z" style="fill:#0b9373"/><path d="M9.06,30.4h-1a.43.43,0,0,1-.4-.21L6.86,28.8a.32.32,0,0,0-.13-.13.35.35,0,0,0-.2,0H6.25V30.4H5.14V25.61H6.7a2.93,2.93,0,0,1,.89.11,1.71,1.71,0,0,1,.59.29,1.12,1.12,0,0,1,.34.45,1.56,1.56,0,0,1,.11.57,1.62,1.62,0,0,1-.07.44,1.33,1.33,0,0,1-.18.38,1.5,1.5,0,0,1-.3.32,1.78,1.78,0,0,1-.41.22l.2.14a1.12,1.12,0,0,1,.17.2ZM6.7,27.86a1,1,0,0,0,.38-.06.72.72,0,0,0,.27-.16.57.57,0,0,0,.14-.24.88.88,0,0,0,0-.29.63.63,0,0,0-.2-.49,1,1,0,0,0-.64-.18H6.25v1.42Z" style="fill:#0b9373"/><path d="M14.6,28a2.58,2.58,0,0,1-.18,1,2.09,2.09,0,0,1-.5.77,2.18,2.18,0,0,1-.78.52,2.83,2.83,0,0,1-2,0,2.14,2.14,0,0,1-.79-.52,2.38,2.38,0,0,1-.5-.77,2.58,2.58,0,0,1-.18-1,2.61,2.61,0,0,1,.18-1,2.49,2.49,0,0,1,.5-.77,2.41,2.41,0,0,1,.79-.52,3,3,0,0,1,2,0,2.48,2.48,0,0,1,.78.52,2.13,2.13,0,0,1,.5.78A2.56,2.56,0,0,1,14.6,28Zm-1.13,0a1.83,1.83,0,0,0-.1-.64,1.18,1.18,0,0,0-.68-.78,1.48,1.48,0,0,0-.57-.11,1.41,1.41,0,0,0-.57.11,1.19,1.19,0,0,0-.43.3,1.38,1.38,0,0,0-.26.48,2.32,2.32,0,0,0,0,1.28,1.53,1.53,0,0,0,.26.49,1.19,1.19,0,0,0,.43.3,1.61,1.61,0,0,0,.57.1,1.7,1.7,0,0,0,.57-.1,1.25,1.25,0,0,0,.42-.3,1.36,1.36,0,0,0,.26-.49A1.83,1.83,0,0,0,13.47,28Z" style="fill:#0b9373"/><path d="M16.9,26.46v1.22h1.64v.85H16.9V30.4H15.78V25.61h3.09v.85Z" style="fill:#0b9373"/><path d="M21.15,30.4H20V25.61h1.12Z" style="fill:#0b9373"/><path d="M26,26.49H24.7V30.4H23.59V26.49H22.24v-.88H26Z" style="fill:#0b9373"/><path d="M34.58,29.16h.08l.08,0,.44.47a1.86,1.86,0,0,1-.73.57,2.49,2.49,0,0,1-1,.19,2.3,2.3,0,0,1-1-.19,2,2,0,0,1-.74-.51,2.29,2.29,0,0,1-.46-.77,2.84,2.84,0,0,1-.16-1,2.8,2.8,0,0,1,.17-1,2.4,2.4,0,0,1,.49-.78,2.34,2.34,0,0,1,.76-.5,2.54,2.54,0,0,1,1-.18,2.78,2.78,0,0,1,.51,0l.44.13a2,2,0,0,1,.38.21,2,2,0,0,1,.31.25l-.37.51-.09.08a.26.26,0,0,1-.14,0,.23.23,0,0,1-.11,0l-.11-.06-.13-.08L34,26.56l-.22-.06a1.42,1.42,0,0,0-.31,0,1.18,1.18,0,0,0-.5.11,1,1,0,0,0-.4.29,1.37,1.37,0,0,0-.25.48,2.17,2.17,0,0,0-.09.65,2,2,0,0,0,.1.66,1.4,1.4,0,0,0,.27.48,1,1,0,0,0,.4.29,1.22,1.22,0,0,0,.5.11l.27,0,.23-.05a.78.78,0,0,0,.21-.09,1.25,1.25,0,0,0,.19-.15l.09-.05A.15.15,0,0,1,34.58,29.16Z" style="fill:#fff"/><path d="M40.49,30.4h-.87a.35.35,0,0,1-.23-.07.37.37,0,0,1-.13-.17L39,29.32H37.15l-.28.84a.38.38,0,0,1-.13.16.36.36,0,0,1-.23.08h-.87l1.85-4.79h1.14Zm-1.77-1.83-.44-1.31c0-.09-.07-.19-.11-.3s-.07-.23-.11-.37c0,.14-.07.26-.1.38l-.11.29-.44,1.31Z" style="fill:#fff"/><path d="M45.31,30.4h-1a.42.42,0,0,1-.4-.21l-.8-1.39a.26.26,0,0,0-.12-.13.37.37,0,0,0-.2,0H42.5V30.4H41.39V25.61H43a2.86,2.86,0,0,1,.88.11,1.68,1.68,0,0,1,.6.29,1.12,1.12,0,0,1,.34.45,1.56,1.56,0,0,1,.1.57,1.61,1.61,0,0,1-.06.44,1.33,1.33,0,0,1-.18.38,1.81,1.81,0,0,1-.3.32,1.67,1.67,0,0,1-.42.22,1.53,1.53,0,0,1,.21.14,1.12,1.12,0,0,1,.17.2ZM43,27.86a1,1,0,0,0,.38-.06.72.72,0,0,0,.27-.16.57.57,0,0,0,.14-.24.88.88,0,0,0,0-.29.61.61,0,0,0-.21-.49.93.93,0,0,0-.63-.18H42.5v1.42Z" style="fill:#fff"/><path d="M.69,32a.56.56,0,0,1,.2,0,.3.3,0,0,1,.14.06.25.25,0,0,1,.08.1.32.32,0,0,1,0,.14.28.28,0,0,1,0,.09.2.2,0,0,1,0,.08L1,32.56l-.1,0a.41.41,0,0,1,.21.1.29.29,0,0,1,.07.19.4.4,0,0,1,0,.15.31.31,0,0,1-.09.11.31.31,0,0,1-.14.07.52.52,0,0,1-.18,0H.29V32Zm-.23.14v.43H.68l.13,0,.09,0a.18.18,0,0,0,0-.07.28.28,0,0,0,0-.09.2.2,0,0,0-.06-.16.31.31,0,0,0-.21,0Zm.27,1H.86l.08-.05A.12.12,0,0,0,1,33a.29.29,0,0,0,0-.09.19.19,0,0,0-.07-.16.41.41,0,0,0-.21,0H.46v.43Z" style="fill:#0b9373"/><path d="M2,32.53a.54.54,0,0,1,.19,0,.46.46,0,0,1,.14.07.28.28,0,0,1,.08.11.28.28,0,0,1,0,.13.41.41,0,0,1,0,.16.27.27,0,0,1-.09.12.31.31,0,0,1-.14.07.54.54,0,0,1-.19,0H1.58V32h.17v.54Zm0,.58h.13a.26.26,0,0,0,.09-.05.16.16,0,0,0,0-.07.29.29,0,0,0,0-.09.2.2,0,0,0,0-.09.16.16,0,0,0,0-.07.26.26,0,0,0-.09,0H1.75v.44Zm.85.14H2.67V32h.17Z" style="fill:#0b9373"/><path d="M4.32,33.25h-.2l0,0-.33-.46,0-.05-.07,0H3.49v.58H3.32V32h.17v.55h.19a.13.13,0,0,0,.06-.05L4.07,32l0,0,0,0h.15l-.38.52a.2.2,0,0,1-.12.08.15.15,0,0,1,.08,0,.12.12,0,0,1,.06.08Z" style="fill:#0b9373"/><path d="M5.59,32l-.52,1.1a.22.22,0,0,1-.05.08s0,0-.06,0a.09.09,0,0,1-.06,0H4.74a0,0,0,0,1,0,0v-.11h.1l0,0,0,0,0-.06L5,32.88,4.5,32h.15l0,0,0,0L5,32.6a.69.69,0,0,1,.05.13l0-.07a.14.14,0,0,1,0-.06L5.39,32l0,0,0,0Z" style="fill:#0b9373"/><path d="M6.87,33.25H6.7V32.13H6.07v1.12H5.9V32h1Z" style="fill:#0b9373"/><path d="M9,32v1.26H8.8v-.89a.22.22,0,0,1,0-.08v-.09l0,.08,0,0-.59.88,0,0-.05,0H8V32h.17v.9a.17.17,0,0,1,0,.07v.09l0-.07,0-.06.59-.87,0,0,0,0Z" style="fill:#0b9373"/><path d="M11,33.25h-.17V32.13h-.63v1.12h-.17V32h1Z" style="fill:#0b9373"/><path d="M11.88,32a.66.66,0,0,1,.21,0l.14.08a.27.27,0,0,1,.09.12.41.41,0,0,1,0,.16.42.42,0,0,1,0,.16.57.57,0,0,1-.08.13.53.53,0,0,1-.15.08.64.64,0,0,1-.2,0h-.2v.47h-.17V32Zm0,.65a.27.27,0,0,0,.13,0l.09,0a.24.24,0,0,0,.06-.08.36.36,0,0,0,0-.11.26.26,0,0,0-.08-.19.34.34,0,0,0-.22-.06h-.2v.51Z" style="fill:#0b9373"/><path d="M13.88,32.62a.71.71,0,0,1-.05.26.56.56,0,0,1-.12.2.72.72,0,0,1-.2.14.69.69,0,0,1-.25,0,.75.75,0,0,1-.26,0,.67.67,0,0,1-.19-.14.46.46,0,0,1-.13-.2.71.71,0,0,1,0-.26.75.75,0,0,1,0-.26.53.53,0,0,1,.13-.2A.5.5,0,0,1,13,32a.58.58,0,0,1,.26-.05.66.66,0,0,1,.45.18.67.67,0,0,1,.12.2A.75.75,0,0,1,13.88,32.62Zm-.18,0a.71.71,0,0,0,0-.21.38.38,0,0,0-.09-.15.36.36,0,0,0-.14-.1.52.52,0,0,0-.18,0,.58.58,0,0,0-.19,0,.45.45,0,0,0-.14.1.38.38,0,0,0-.09.15.71.71,0,0,0,0,.21.66.66,0,0,0,0,.21.38.38,0,0,0,.09.15.33.33,0,0,0,.14.1.58.58,0,0,0,.19,0,.53.53,0,0,0,.18,0,.28.28,0,0,0,.14-.1.38.38,0,0,0,.09-.15A.66.66,0,0,0,13.7,32.62Z" style="fill:#0b9373"/><path d="M15.4,33.12v.38s0,0,0,0l0,0h-.1v-.31h-1v.25s0,0,0,0l0,0h-.1v-.44h.13l0,0a.28.28,0,0,0,.05-.08,1.09,1.09,0,0,0,0-.14c0-.05,0-.12,0-.2s0-.18,0-.28,0-.24,0-.38h.75v1.13Zm-.38,0v-1h-.41c0,.14,0,.27,0,.37a1.92,1.92,0,0,1-.05.29.47.47,0,0,1-.06.19.46.46,0,0,1-.07.14Z" style="fill:#0b9373"/><path d="M16.79,33.25h-.17l0,0-.12-.3h-.56l-.12.3,0,0h-.17l.5-1.26h.18Zm-.36-.47-.19-.51a.08.08,0,0,1,0-.05.14.14,0,0,1,0-.07.83.83,0,0,1,0,.12l-.2.51Z" style="fill:#0b9373"/><path d="M18.75,33.25h-.11l-.07,0s0,0,0,0l-.32-.45-.05-.05-.08,0h-.14v.58h-.16v-.58h-.15l-.08,0-.05.05-.32.45a.08.08,0,0,1,0,0l-.06,0H17l.38-.54a.12.12,0,0,1,.06-.08l.07,0-.06,0-.05-.06L17,32h.13l.05,0,0,0,.31.44a.13.13,0,0,0,.06.05h.2V32h.16v.55h.19a.13.13,0,0,0,.06-.05L18.5,32l0,0,.05,0h.13l-.36.51-.05.06-.07,0a.2.2,0,0,1,.08,0,.28.28,0,0,1,.06.08Z" style="fill:#0b9373"/><path d="M20.1,33.25h-.16l0,0-.11-.3h-.57l-.11.3,0,0h-.17l.5-1.26h.17Zm-.35-.47-.2-.51a.17.17,0,0,0,0-.05s0,0,0-.07l0,.12-.2.51Z" style="fill:#0b9373"/><path d="M22.05,33.25h-.17l0,0-.12-.3h-.56l-.11.3,0,0h-.16l.5-1.26h.17Zm-.35-.47-.2-.51a.17.17,0,0,0,0-.05.25.25,0,0,0,0-.07,1,1,0,0,1,0,.12l-.2.51Z" style="fill:#0b9373"/><path d="M22.77,32a.56.56,0,0,1,.2,0,.26.26,0,0,1,.14.06.25.25,0,0,1,.08.1.32.32,0,0,1,0,.14.29.29,0,0,1,0,.09.2.2,0,0,1,0,.08l-.08.07-.1,0a.41.41,0,0,1,.21.1.25.25,0,0,1,.07.19.4.4,0,0,1,0,.15.44.44,0,0,1-.08.11.37.37,0,0,1-.14.07.58.58,0,0,1-.19,0h-.45V32Zm-.23.14v.43h.23l.12,0a.19.19,0,0,0,.09,0,.18.18,0,0,0,.05-.07.29.29,0,0,0,0-.09.18.18,0,0,0-.07-.16.3.3,0,0,0-.21,0Zm.28,1h.12a.26.26,0,0,0,.09-.05.18.18,0,0,0,0-.07.28.28,0,0,0,0-.09.19.19,0,0,0-.07-.16.34.34,0,0,0-.2,0h-.28v.43Z" style="fill:#0b9373"/><path d="M24.49,32.14h-.41v1.11h-.17V32.14h-.4V32h1Z" style="fill:#0b9373"/><path d="M25.94,32.62a.71.71,0,0,1-.05.26.56.56,0,0,1-.12.2.72.72,0,0,1-.2.14.69.69,0,0,1-.25,0,.75.75,0,0,1-.26,0,.67.67,0,0,1-.19-.14.46.46,0,0,1-.13-.2.71.71,0,0,1,0-.26.75.75,0,0,1,0-.26.53.53,0,0,1,.13-.2.5.5,0,0,1,.19-.13.58.58,0,0,1,.26-.05.66.66,0,0,1,.45.18.67.67,0,0,1,.12.2A.75.75,0,0,1,25.94,32.62Zm-.18,0a.71.71,0,0,0,0-.21.38.38,0,0,0-.09-.15.36.36,0,0,0-.14-.1.52.52,0,0,0-.18,0,.58.58,0,0,0-.19,0,.45.45,0,0,0-.14.1.38.38,0,0,0-.09.15.71.71,0,0,0,0,.21.66.66,0,0,0,0,.21A.38.38,0,0,0,25,33a.33.33,0,0,0,.14.1.58.58,0,0,0,.19,0,.53.53,0,0,0,.18,0,.28.28,0,0,0,.14-.1.38.38,0,0,0,.09-.15A.66.66,0,0,0,25.76,32.62Z" style="fill:#0b9373"/><path d="M38.3,19.47c-1.86-.25-6.66-.22-8.26-.68s-1.62-.77-3.65-1.51a31.83,31.83,0,0,0-7.58-1.56,35.37,35.37,0,0,0-14,2c-.81.11-1.68.27-1.94.34A3.28,3.28,0,0,0,.48,21.54a2.81,2.81,0,0,0,1,1.88,4.59,4.59,0,0,1-.19-1.88,3.6,3.6,0,0,1,.59-1.61A3.45,3.45,0,0,1,3.12,18.8a4,4,0,0,1,1.06-.38l17.59,1.12L9.13,18.18a22.68,22.68,0,0,1,7.48-1.74,26,26,0,0,1,10.08,1.64l.59.25.6.27-.43.42a1.52,1.52,0,0,0-.55-.36c-.57-.24-1.44-.23-1.64.1s0,.51.24.67a1.73,1.73,0,0,0,1.68.11,43,43,0,0,1,6.18.05,42.36,42.36,0,0,1,5.76.85,5.81,5.81,0,0,0-3,.82,4.32,4.32,0,0,0-1.57,1.67,51,51,0,0,0-5-1.56A56,56,0,0,0,10.44,20l15,1.42L34.63,24a4.6,4.6,0,0,1,2.49-2.51,6.93,6.93,0,0,1,7,1.45A9.46,9.46,0,0,0,38.3,19.47Z" style="fill:#0b9373"/><path d="M44.35,23.1a9.46,9.46,0,0,0-5.86-3.44c-1.86-.24-6.66-.22-8.25-.67a8.72,8.72,0,0,1-1.91-.78v1.47a45,45,0,0,1,5.23.1,42.12,42.12,0,0,1,5.76.85,5.91,5.91,0,0,0-3,.82,4.19,4.19,0,0,0-1.56,1.67,49.44,49.44,0,0,0-5-1.55c-.52-.14-1-.26-1.48-.36v1.12l6.5,1.83a4.6,4.6,0,0,1,2.49-2.51A7,7,0,0,1,44.35,23.1Z" style="fill:#fff"/><path d="M2.45,23.26a5.85,5.85,0,0,1,1.63-1.91,4.75,4.75,0,0,1,2.42-1,4.39,4.39,0,0,1,2.55.55,5.19,5.19,0,0,1,1.85,1.72A10.16,10.16,0,0,0,8.79,21.5a5,5,0,0,0-2.22-.32A7.77,7.77,0,0,0,2.45,23.26Z" style="fill:#0b9373"/></svg>