<svg id="Layer_1" data-name="Layer 1" xmlns="http://www.w3.org/2000/svg" viewBox="0 0 24 24"><rect x="14.27" y="7.18" width="9.64" height="9.64" style="fill:#0b9373"/><path d="M1.19,13a1.42,1.42,0,0,1,.44.06.73.73,0,0,1,.47.41,1.06,1.06,0,0,1,0,.31,1.14,1.14,0,0,1,0,.33.64.64,0,0,1-.18.25.87.87,0,0,1-.3.17,1.35,1.35,0,0,1-.43.06H.9v.8H.35V13Zm0,1.17A.39.39,0,0,0,1.5,14a.39.39,0,0,0,.1-.29.33.33,0,0,0,0-.15.37.37,0,0,0-.07-.12.4.4,0,0,0-.13-.07.48.48,0,0,0-.18,0H.9v.76Z" style="fill:#0b9373"/><path d="M4.65,15.35h-.5a.22.22,0,0,1-.2-.11l-.4-.69-.06-.07-.1,0H3.25v.89H2.7V13h.77a1.93,1.93,0,0,1,.45,0,.87.87,0,0,1,.29.15.51.51,0,0,1,.17.22.71.71,0,0,1,0,.29.83.83,0,0,1,0,.22.66.66,0,0,1-.09.19.54.54,0,0,1-.15.15.82.82,0,0,1-.2.12l.1.07a.27.27,0,0,1,.08.1ZM3.47,14.08a.6.6,0,0,0,.2,0A.35.35,0,0,0,3.8,14a.35.35,0,0,0,.07-.12.32.32,0,0,0,0-.14.3.3,0,0,0-.1-.25.47.47,0,0,0-.32-.09H3.25v.71Z" style="fill:#0b9373"/><path d="M7.42,14.15a1.28,1.28,0,0,1-.09.48,1.16,1.16,0,0,1-.26.39,1,1,0,0,1-.39.26,1.35,1.35,0,0,1-.5.09,1.36,1.36,0,0,1-.51-.09A1.07,1.07,0,0,1,5.28,15,1.16,1.16,0,0,1,5,14.63a1.32,1.32,0,0,1,0-1,1.16,1.16,0,0,1,.26-.39A1,1,0,0,1,5.67,13a1.19,1.19,0,0,1,.51-.1,1.18,1.18,0,0,1,.5.1,1.09,1.09,0,0,1,.39.25,1.16,1.16,0,0,1,.26.39A1.28,1.28,0,0,1,7.42,14.15Zm-.57,0a1.07,1.07,0,0,0,0-.32.7.7,0,0,0-.13-.24.8.8,0,0,0-.21-.15.82.82,0,0,0-.28,0,.84.84,0,0,0-.29,0,.8.8,0,0,0-.21.15.7.7,0,0,0-.13.24,1.07,1.07,0,0,0,0,.32,1,1,0,0,0,0,.32.55.55,0,0,0,.13.24.51.51,0,0,0,.21.15.65.65,0,0,0,.29.05.64.64,0,0,0,.28-.05.51.51,0,0,0,.21-.15.55.55,0,0,0,.13-.24A1,1,0,0,0,6.85,14.15Z" style="fill:#0b9373"/><path d="M8.56,13.38V14h.82v.43H8.56v.93H8V13H9.54v.42Z" style="fill:#0b9373"/><path d="M10.68,15.35h-.56V13h.56Z" style="fill:#0b9373"/><path d="M13.12,13.4h-.67v1.95h-.56V13.4h-.67V13h1.9Z" style="fill:#0b9373"/><path d="M17.38,14.73h0l0,0,.22.23a.86.86,0,0,1-.36.29,1.43,1.43,0,0,1-1,0A1,1,0,0,1,16,15a1,1,0,0,1-.23-.38,1.54,1.54,0,0,1,0-1,1.14,1.14,0,0,1,.25-.39,1.21,1.21,0,0,1,.37-.25,1.3,1.3,0,0,1,.49-.09,1,1,0,0,1,.25,0,.79.79,0,0,1,.22.06l.19.1.16.13-.19.25,0,0a.08.08,0,0,1-.07,0h-.06l-.05,0-.07,0-.08-.05-.11,0h-.16a.7.7,0,0,0-.25,0,.45.45,0,0,0-.19.15.55.55,0,0,0-.13.24,1,1,0,0,0-.05.32,1.14,1.14,0,0,0,.05.33,1,1,0,0,0,.14.24.75.75,0,0,0,.2.15.7.7,0,0,0,.25.05H17l.12,0,.1-.05.1-.07,0,0Z" style="fill:#fff"/><path d="M20.32,15.35h-.43a.16.16,0,0,1-.12,0,.24.24,0,0,1-.06-.08l-.14-.42h-.91l-.14.42s0,0-.07.08a.21.21,0,0,1-.11,0H17.9L18.83,13h.57Zm-.88-.92-.22-.65a.53.53,0,0,1,0-.15,1.89,1.89,0,0,1-.06-.18c0,.07,0,.13-.05.19a1.21,1.21,0,0,0,0,.14l-.22.65Z" style="fill:#fff"/><path d="M22.72,15.35h-.5a.22.22,0,0,1-.2-.11l-.39-.69a.23.23,0,0,0-.07-.07l-.09,0h-.14v.89h-.56V13h.78A1.84,1.84,0,0,1,22,13a1.05,1.05,0,0,1,.3.15.72.72,0,0,1,.17.22.93.93,0,0,1,.05.29.83.83,0,0,1,0,.22.66.66,0,0,1-.09.19l-.15.15a.72.72,0,0,1-.21.12l.1.07a.45.45,0,0,1,.09.1Zm-1.17-1.27a.54.54,0,0,0,.19,0,.29.29,0,0,0,.13-.08.24.24,0,0,0,.07-.12.32.32,0,0,0,0-.14.34.34,0,0,0-.1-.25.49.49,0,0,0-.32-.09h-.22v.71Z" style="fill:#fff"/><path d="M.48,16.14h.1l.07,0,0,0s0,0,0,.07a.06.06,0,0,1,0,0l0,0,0,0-.05,0a.19.19,0,0,1,.11.05.12.12,0,0,1,0,.09s0,.05,0,.07,0,0,0,.06l-.07,0H.28v-.63Zm-.12.07v.21H.54l0,0,0,0v0a.12.12,0,0,0,0-.09.22.22,0,0,0-.1,0Zm.14.49H.56l0,0s0,0,0,0,0,0,0,0a.09.09,0,0,0,0-.08.15.15,0,0,0-.1,0H.36v.22Z" style="fill:#0b9373"/><path d="M1.13,16.41h.1l.07,0,0,.05s0,0,0,.07a.19.19,0,0,1,0,.08.21.21,0,0,1,0,.06l-.07,0H.92v-.63H1v.27Zm0,.29h.06a.05.05,0,0,0,0,0l0,0s0,0,0,0,0,0,0-.05l0,0a.05.05,0,0,0,0,0H1v.22Zm.42.07H1.46v-.63h.09Z" style="fill:#0b9373"/><path d="M2.29,16.77h-.1s0,0,0,0L2,16.51l0,0H1.87v.29H1.79v-.63h.08v.28H2l0,0,.16-.22s0,0,0,0h.09l-.19.26a.1.1,0,0,1-.05,0l0,0,0,0Z" style="fill:#0b9373"/><path d="M2.92,16.14l-.26.55,0,0,0,0H2.49V16.7h.09l0,0,0-.06-.26-.45h.1a0,0,0,0,1,0,0l.16.29a.14.14,0,0,1,0,.06v0l0,0,.13-.29h.1Z" style="fill:#0b9373"/><path d="M3.56,16.77H3.47v-.56H3.16v.56H3.08v-.63h.48Z" style="fill:#0b9373"/><path d="M4.61,16.14v.63H4.52v-.49s0,0,0,0,0,0,0,0v0l-.3.43s0,0,0,0H4.1v-.63h.09v.45a.08.08,0,0,1,0,0v0s0,0,0,0v0l.3-.43s0,0,0,0h.09Z" style="fill:#0b9373"/><path d="M5.63,16.77H5.55v-.56H5.23v.56H5.15v-.63h.48Z" style="fill:#0b9373"/><path d="M6.06,16.14l.1,0,.07,0a.18.18,0,0,1,0,.07s0,0,0,.08a.24.24,0,0,1,0,.08l0,.06-.07,0H6v.24H5.87v-.63Zm0,.33h.06l0,0,0,0s0,0,0-.05a.15.15,0,0,0,0-.1.18.18,0,0,0-.11,0H6v.26Z" style="fill:#0b9373"/><path d="M7.05,16.46a.23.23,0,0,1,0,.12.39.39,0,0,1-.06.11.33.33,0,0,1-.1.06.28.28,0,0,1-.13,0,.27.27,0,0,1-.12,0,.33.33,0,0,1-.1-.06.24.24,0,0,1-.06-.11.23.23,0,0,1,0-.12.27.27,0,0,1,0-.13.24.24,0,0,1,.06-.11.33.33,0,0,1,.1-.06.25.25,0,0,1,.12,0,.27.27,0,0,1,.13,0,.33.33,0,0,1,.1.06.39.39,0,0,1,.06.11A.27.27,0,0,1,7.05,16.46Zm-.08,0a.36.36,0,0,0,0-.11s0-.05,0-.08l-.07,0a.16.16,0,0,0-.1,0,.15.15,0,0,0-.09,0l-.07,0a.3.3,0,0,0,0,.08.36.36,0,0,0,0,.11.36.36,0,0,0,0,.1.3.3,0,0,0,0,.08l.07.05h.19l.07-.05s0-.05,0-.08A.36.36,0,0,0,7,16.46Z" style="fill:#0b9373"/><path d="M7.81,16.7v.2H7.74v-.15H7.23v.13a0,0,0,0,1,0,0s0,0,0,0h0V16.7h.07s0,0,0,0l0,0a.14.14,0,0,0,0-.07.3.3,0,0,0,0-.1s0-.09,0-.14,0-.12,0-.19h.37v.56Zm-.18,0v-.49H7.42c0,.07,0,.13,0,.19a.59.59,0,0,1,0,.14l0,.1a.33.33,0,0,1,0,.06Z" style="fill:#0b9373"/><path d="M8.5,16.77H8.41l-.06-.15H8.07L8,16.75a0,0,0,0,1,0,0H7.92l.25-.63h.08Zm-.17-.23-.1-.26v-.06s0,.05,0,.06l-.1.26Z" style="fill:#0b9373"/><path d="M9.48,16.77H9.4l0,0-.15-.22,0,0H9.08v.29H9v-.29H8.89l0,0-.16.22a0,0,0,0,1,0,0H8.59l.19-.27,0,0,0,0a.05.05,0,0,1,0,0s0,0,0,0l-.18-.25H8.7a0,0,0,0,1,0,0l.16.22,0,0H9v-.28h.08v.28h.09l0,0,.16-.22s0,0,0,0h.09l-.18.25s0,0,0,0l0,0,0,0,0,0Z" style="fill:#0b9373"/><path d="M10.16,16.77h-.09a0,0,0,0,0,0,0L10,16.6H9.72l-.05.15a0,0,0,0,0,0,0H9.57l.25-.63h.09ZM10,16.54l-.1-.26v-.06a.35.35,0,0,1,0,.06l-.1.26Z" style="fill:#0b9373"/><path d="M11.13,16.77H11l0-.15H10.7l-.06.15h-.1l.25-.63h.09ZM11,16.54l-.1-.26v-.06a.39.39,0,0,0,0,.06l-.1.26Z" style="fill:#0b9373"/><path d="M11.49,16.14h.1l.07,0a.1.1,0,0,1,0,0,.15.15,0,0,1,0,.07.06.06,0,0,1,0,0l0,0,0,0-.05,0a.19.19,0,0,1,.11.05.12.12,0,0,1,0,.09.15.15,0,0,1,0,.07s0,0-.05.06,0,0-.07,0h-.31v-.63Zm-.12.07v.21h.18l0,0,0,0v0a.1.1,0,0,0,0-.09l-.1,0Zm.14.49h.06l0,0a.05.05,0,0,0,0,0,.06.06,0,0,0,0,0,.09.09,0,0,0,0-.08.13.13,0,0,0-.1,0h-.14v.22Z" style="fill:#0b9373"/><path d="M12.34,16.21h-.2v.56h-.08v-.56h-.21v-.07h.49Z" style="fill:#0b9373"/><path d="M13.07,16.46a.49.49,0,0,1-.09.23.33.33,0,0,1-.1.06.24.24,0,0,1-.12,0,.28.28,0,0,1-.13,0,.33.33,0,0,1-.1-.06l-.06-.11a.43.43,0,0,1,0-.12.51.51,0,0,1,0-.13l.06-.11a.33.33,0,0,1,.1-.06.27.27,0,0,1,.13,0,.23.23,0,0,1,.12,0,.33.33,0,0,1,.1.06.24.24,0,0,1,.06.11A.28.28,0,0,1,13.07,16.46Zm-.09,0a.36.36,0,0,0,0-.11l0-.08-.07,0a.15.15,0,0,0-.09,0s-.07,0-.09,0-.06,0-.07,0a.35.35,0,0,0,0,.08.37.37,0,0,0,0,.11.34.34,0,0,0,0,.1.35.35,0,0,0,0,.08s0,0,.07.05h.18l.07-.05,0-.08A.36.36,0,0,0,13,16.46Z" style="fill:#0b9373"/><path d="M19.23,9.9c-.93-.13-3.32-.11-4.12-.34s-.8-.39-1.82-.76A15.84,15.84,0,0,0,9.51,8a17.7,17.7,0,0,0-7,1,8.44,8.44,0,0,0-1,.17,1.66,1.66,0,0,0-.9.65,1.69,1.69,0,0,0-.28,1.07,1.41,1.41,0,0,0,.48.94,2.4,2.4,0,0,1-.1-.94,1.8,1.8,0,0,1,.3-.8,1.68,1.68,0,0,1,.64-.57,2.76,2.76,0,0,1,.53-.19L11,9.93,4.68,9.26a11.34,11.34,0,0,1,3.74-.87,13,13,0,0,1,5,.81l.3.13.3.14-.22.2a1,1,0,0,0-.27-.18c-.29-.11-.72-.11-.82,0s0,.26.12.34a.87.87,0,0,0,.84,0,21.41,21.41,0,0,1,3.08,0,21.08,21.08,0,0,1,2.87.42,2.94,2.94,0,0,0-1.49.41,2.05,2.05,0,0,0-.78.83,25,25,0,0,0-2.47-.77,27.88,27.88,0,0,0-9.56-.7l7.49.71,4.57,1.28a2.27,2.27,0,0,1,1.24-1.25,3.47,3.47,0,0,1,3.51.72A4.67,4.67,0,0,0,19.23,9.9Z" style="fill:#0b9373"/><path d="M22.25,11.71A4.73,4.73,0,0,0,19.32,10c-.92-.12-3.32-.11-4.11-.33a4.56,4.56,0,0,1-1-.39V10a23.52,23.52,0,0,1,2.61.05,20.71,20.71,0,0,1,2.87.43,2.81,2.81,0,0,0-1.48.41,2,2,0,0,0-.79.83A24.07,24.07,0,0,0,15,10.94l-.74-.18v.57l3.25.91A2.27,2.27,0,0,1,18.74,11,3.44,3.44,0,0,1,22.25,11.71Z" style="fill:#fff"/><path d="M1.36,11.79a2.67,2.67,0,0,1,2-1.44,2.43,2.43,0,0,1,2.2,1.13,3.29,3.29,0,0,0-2.16-.73A3.8,3.8,0,0,0,1.36,11.79Z" style="fill:#0b9373"/></svg>