<svg id="Layer_1" data-name="Layer 1" xmlns="http://www.w3.org/2000/svg" viewBox="0 0 32 32"><rect x="19.09" y="9.22" width="13.06" height="13.06" style="fill:#0b9373"/><path d="M1.38,17.05a1.66,1.66,0,0,1,.58.08,1.14,1.14,0,0,1,.41.22,1,1,0,0,1,.23.34,1.11,1.11,0,0,1,.08.41,1.33,1.33,0,0,1-.08.45.81.81,0,0,1-.24.34,1.11,1.11,0,0,1-.4.23,2,2,0,0,1-.58.08H1v1.08H.24V17.05Zm0,1.58a.53.53,0,0,0,.42-.14.57.57,0,0,0,.13-.39.64.64,0,0,0,0-.2.57.57,0,0,0-.11-.16.55.55,0,0,0-.17-.1.88.88,0,0,0-.24,0H1v1Z" style="fill:#0b9373"/><path d="M6.06,20.28H5.38a.31.31,0,0,1-.27-.14l-.54-.94a.24.24,0,0,0-.08-.09.25.25,0,0,0-.13,0H4.17v1.2H3.42V17.05h1a2.15,2.15,0,0,1,.6.07,1.07,1.07,0,0,1,.4.2.93.93,0,0,1,.23.3,1.23,1.23,0,0,1,.07.39,1.35,1.35,0,0,1,0,.29,1,1,0,0,1-.33.47.85.85,0,0,1-.28.16.55.55,0,0,1,.14.09.53.53,0,0,1,.11.14ZM4.47,18.57a1,1,0,0,0,.26,0,.54.54,0,0,0,.18-.11A.51.51,0,0,0,5,18.26a.65.65,0,0,0,0-.2.42.42,0,0,0-.14-.33.67.67,0,0,0-.43-.12h-.3v1Z" style="fill:#0b9373"/><path d="M9.81,18.66a1.71,1.71,0,0,1-.12.65,1.63,1.63,0,0,1-.35.53,1.45,1.45,0,0,1-.52.35,1.9,1.9,0,0,1-1.38,0,1.49,1.49,0,0,1-.53-.35,1.46,1.46,0,0,1-.34-.53,1.71,1.71,0,0,1-.12-.65A1.75,1.75,0,0,1,6.57,18a1.42,1.42,0,0,1,.34-.52,1.49,1.49,0,0,1,.53-.35,1.9,1.9,0,0,1,1.38,0,1.45,1.45,0,0,1,.52.35,1.7,1.7,0,0,1,.35.52A1.75,1.75,0,0,1,9.81,18.66Zm-.77,0A1.44,1.44,0,0,0,9,18.23a.89.89,0,0,0-.18-.32.86.86,0,0,0-.29-.21.92.92,0,0,0-.38-.07.94.94,0,0,0-.39.07.86.86,0,0,0-.29.21.88.88,0,0,0-.17.32,1.18,1.18,0,0,0-.07.43,1.23,1.23,0,0,0,.07.44,1.09,1.09,0,0,0,.17.32.72.72,0,0,0,.29.2.94.94,0,0,0,.39.07.92.92,0,0,0,.38-.07.72.72,0,0,0,.29-.2A1.11,1.11,0,0,0,9,19.1,1.51,1.51,0,0,0,9,18.66Z" style="fill:#0b9373"/><path d="M11.36,17.62v.82h1.1V19h-1.1v1.26H10.6V17.05h2.08v.57Z" style="fill:#0b9373"/><path d="M14.23,20.28h-.76V17.05h.76Z" style="fill:#0b9373"/><path d="M17.53,17.64h-.91v2.64h-.75V17.64H15v-.59h2.57Z" style="fill:#0b9373"/><path d="M23.3,19.44h.05a.1.1,0,0,1,0,0l.3.31a1.25,1.25,0,0,1-.49.39,1.81,1.81,0,0,1-.69.13,1.69,1.69,0,0,1-.66-.13,1.37,1.37,0,0,1-.5-.35,1.5,1.5,0,0,1-.31-.52,2,2,0,0,1-.11-.66,1.76,1.76,0,0,1,.12-.66,1.69,1.69,0,0,1,.33-.53,1.52,1.52,0,0,1,.51-.34,1.75,1.75,0,0,1,.65-.12,1.9,1.9,0,0,1,.35,0c.1,0,.2.05.3.09l.26.14.2.17-.25.34-.06.06-.09,0h-.08l-.07-.05L23,17.75l-.11-.06-.15,0-.21,0a.77.77,0,0,0-.34.07.73.73,0,0,0-.27.2,1.09,1.09,0,0,0-.17.32,1.51,1.51,0,0,0-.06.44,1.16,1.16,0,0,0,.07.44.88.88,0,0,0,.18.33.86.86,0,0,0,.27.2.8.8,0,0,0,.34.07h.18l.16,0,.14-.07a.5.5,0,0,0,.13-.1l.06,0Z" style="fill:#fff"/><path d="M27.29,20.28H26.7a.24.24,0,0,1-.15,0,.27.27,0,0,1-.09-.12l-.19-.57H25l-.2.57a.21.21,0,0,1-.08.11.3.3,0,0,1-.16.05H24l1.26-3.23H26ZM26.09,19l-.3-.88-.07-.2c0-.08,0-.16-.07-.25,0,.09,0,.18-.07.25l-.07.2-.3.88Z" style="fill:#fff"/><path d="M30.54,20.28h-.68a.31.31,0,0,1-.27-.14l-.53-.94a.38.38,0,0,0-.09-.09.23.23,0,0,0-.13,0h-.19v1.2H27.9V17.05H29a2.15,2.15,0,0,1,.6.07,1.07,1.07,0,0,1,.4.2.81.81,0,0,1,.23.3,1,1,0,0,1,.07.39.92.92,0,0,1,0,.29,1,1,0,0,1-.33.47.85.85,0,0,1-.28.16.42.42,0,0,1,.14.09.87.87,0,0,1,.12.14ZM29,18.57a1,1,0,0,0,.26,0,.54.54,0,0,0,.18-.11.86.86,0,0,0,.1-.16.64.64,0,0,0,0-.2.42.42,0,0,0-.14-.33.65.65,0,0,0-.43-.12h-.3v1Z" style="fill:#fff"/><path d="M.41,21.36H.54a.31.31,0,0,1,.1.05.18.18,0,0,1,0,.07.24.24,0,0,1,0,.09.13.13,0,0,1,0,.06l0,.05a.12.12,0,0,1-.05,0l-.07,0a.21.21,0,0,1,.14.07A.17.17,0,0,1,.74,22a.29.29,0,0,1,0,.09l-.06.08-.09.05-.13,0H.14v-.85Zm-.16.09v.29H.49l.06,0a.09.09,0,0,0,0-.05.11.11,0,0,0,0-.06.14.14,0,0,0,0-.11.26.26,0,0,0-.14,0Zm.19.67.08,0a.07.07,0,0,0,.06,0,.05.05,0,0,0,0,0,.15.15,0,0,0,0-.07.12.12,0,0,0,0-.1.2.2,0,0,0-.14,0H.25v.3Z" style="fill:#0b9373"/><path d="M1.29,21.72l.13,0,.1.05a.18.18,0,0,1,.05.07.29.29,0,0,1,0,.09.36.36,0,0,1,0,.11.16.16,0,0,1-.06.08l-.09.05-.13,0H1v-.85h.12v.36Zm0,.4.08,0a.06.06,0,0,0,.06,0,.05.05,0,0,0,0,0,.14.14,0,0,0,0-.07.14.14,0,0,0,0-.06s0,0,0,0l-.06,0H1.13v.3Zm.57.09H1.74v-.85h.12Z" style="fill:#0b9373"/><path d="M2.86,22.21H2.73l0,0-.22-.31s0,0,0,0H2.3v.39H2.18v-.85H2.3v.37h.13a.05.05,0,0,0,0,0l.22-.3a0,0,0,0,1,0,0h.13l-.26.35a.18.18,0,0,1-.07.05l.05,0,0,.05Z" style="fill:#0b9373"/><path d="M3.72,21.36l-.35.74,0,0,0,0,0,0h-.1l0,0v-.07H3.2l0,0,0,0,0,0,0-.09L3,21.36h.13s0,0,0,0l.22.38,0,.09s0,0,0-.05a.08.08,0,0,0,0,0l.18-.38a0,0,0,0,1,0,0s0,0,0,0Z" style="fill:#0b9373"/><path d="M4.58,22.21H4.47v-.76H4v.76H3.93v-.85h.65Z" style="fill:#0b9373"/><path d="M6,21.36v.85H5.89v-.66a.13.13,0,0,1,0-.06l0,.05a.05.05,0,0,1,0,0l-.4.59,0,0H5.32v-.85h.11v.71a.17.17,0,0,1,0-.05.08.08,0,0,1,0,0l.4-.58,0,0H6Z" style="fill:#0b9373"/><path d="M7.39,22.21H7.28v-.76H6.85v.76H6.74v-.85h.65Z" style="fill:#0b9373"/><path d="M8,21.36l.14,0,.1.05a.16.16,0,0,1,.06.08.43.43,0,0,1,0,.11.36.36,0,0,1,0,.11.16.16,0,0,1-.06.08.21.21,0,0,1-.1.06l-.14,0H7.83v.32H7.71v-.85Zm0,.44h.09l.07,0,0-.06a.14.14,0,0,0,0-.07.21.21,0,0,0-.05-.13.34.34,0,0,0-.16,0H7.83v.35Z" style="fill:#0b9373"/><path d="M9.32,21.78a.34.34,0,0,1,0,.18.39.39,0,0,1-.08.14.57.57,0,0,1-.13.08.33.33,0,0,1-.17,0,.31.31,0,0,1-.17,0l-.14-.08A.64.64,0,0,1,8.51,22a.48.48,0,0,1,0-.18.47.47,0,0,1,0-.17.64.64,0,0,1,.08-.14.42.42,0,0,1,.14-.09.43.43,0,0,1,.17,0,.47.47,0,0,1,.17,0,.38.38,0,0,1,.13.09.39.39,0,0,1,.08.14A.33.33,0,0,1,9.32,21.78Zm-.12,0a.59.59,0,0,0,0-.14l-.06-.1L9,21.47l-.12,0-.13,0a.22.22,0,0,0-.09.07.21.21,0,0,0-.06.1.32.32,0,0,0,0,.14.3.3,0,0,0,0,.14.2.2,0,0,0,.06.11.15.15,0,0,0,.09.06.28.28,0,0,0,.13,0,.27.27,0,0,0,.12,0,.21.21,0,0,0,.1-.06.54.54,0,0,0,.06-.11A.52.52,0,0,0,9.2,21.78Z" style="fill:#0b9373"/><path d="M10.34,22.12v.26s0,0,0,0,0,0,0,0h-.07v-.2H9.56v.17a0,0,0,0,1,0,0s0,0,0,0H9.45v-.29h.09l0,0a.13.13,0,0,0,0-.06.46.46,0,0,0,0-.09s0-.08,0-.14a1.54,1.54,0,0,1,0-.19c0-.07,0-.16,0-.25h.51v.76Zm-.25,0v-.67H9.81c0,.1,0,.18,0,.25s0,.14,0,.19a1.27,1.27,0,0,1,0,.14l-.05.09Z" style="fill:#0b9373"/><path d="M11.28,22.21h-.11l0,0-.08-.2h-.38l-.08.2s0,0,0,0h-.11l.34-.85h.11ZM11,21.89l-.13-.34v0s0,0,0,0a.19.19,0,0,1,0,.08l-.14.34Z" style="fill:#0b9373"/><path d="M12.61,22.21h-.12l0,0-.22-.3,0,0h-.15v.39H12v-.39H11.8l0,0-.21.3,0,0H11.4l.25-.37,0-.05.05,0,0,0,0,0-.25-.34h.12l0,0,.21.3s0,0,0,0H12v-.37h.11v.37h.13l0,0,.21-.3,0,0h.12l-.25.34,0,0-.05,0,.05,0,0,.05Z" style="fill:#0b9373"/><path d="M13.52,22.21h-.11l0,0-.08-.2h-.38l-.08.2s0,0,0,0h-.11l.34-.85h.11Zm-.24-.32-.13-.34v0s0,0,0,0a.19.19,0,0,1,0,.08l-.13.34Z" style="fill:#0b9373"/><path d="M14.84,22.21h-.12s0,0,0,0l-.08-.2h-.38l-.08.2s0,0,0,0H14l.34-.85h.12Zm-.24-.32-.14-.34v0s0,0,0,0l0,.08-.13.34Z" style="fill:#0b9373"/><path d="M15.32,21.36h.14a.19.19,0,0,1,.09.05.2.2,0,0,1,.06.07.25.25,0,0,1,0,.09.13.13,0,0,1,0,.06.05.05,0,0,1,0,.05.12.12,0,0,1-.05,0l-.07,0a.24.24,0,0,1,.15.07.17.17,0,0,1,0,.13.29.29,0,0,1,0,.09.16.16,0,0,1-.06.08.19.19,0,0,1-.09.05l-.13,0h-.3v-.85Zm-.15.09v.29h.23l.06,0a.1.1,0,0,0,0-.05.11.11,0,0,0,0-.06.14.14,0,0,0,0-.11.24.24,0,0,0-.14,0Zm.18.67.09,0a.05.05,0,0,0,.05,0l0,0a.15.15,0,0,0,0-.07.12.12,0,0,0,0-.1.2.2,0,0,0-.14,0h-.18v.3Z" style="fill:#0b9373"/><path d="M16.48,21.45h-.27v.76h-.12v-.76h-.27v-.09h.66Z" style="fill:#0b9373"/><path d="M17.46,21.78a.48.48,0,0,1,0,.18.42.42,0,0,1-.09.14.41.41,0,0,1-.13.08.38.38,0,0,1-.34,0,.57.57,0,0,1-.13-.08.42.42,0,0,1-.09-.14.48.48,0,0,1,0-.18.47.47,0,0,1,0-.17.42.42,0,0,1,.09-.14.38.38,0,0,1,.13-.09.5.5,0,0,1,.34,0,.3.3,0,0,1,.13.09.42.42,0,0,1,.09.14A.47.47,0,0,1,17.46,21.78Zm-.12,0a.59.59,0,0,0,0-.14.21.21,0,0,0-.06-.1l-.09-.07-.13,0-.12,0-.1.07-.06.1a.59.59,0,0,0,0,.14.52.52,0,0,0,0,.14.54.54,0,0,0,.06.11.21.21,0,0,0,.1.06.24.24,0,0,0,.12,0,.28.28,0,0,0,.13,0l.09-.06a.2.2,0,0,0,.06-.11A.52.52,0,0,0,17.34,21.78Z" style="fill:#0b9373"/><path d="M25.81,12.9c-1.26-.17-4.5-.15-5.58-.46s-1.09-.52-2.46-1a22,22,0,0,0-5.12-1.05,23.87,23.87,0,0,0-9.47,1.37A12.24,12.24,0,0,0,1.87,12a2.16,2.16,0,0,0-1.22.88A2.15,2.15,0,0,0,.27,14.3a1.91,1.91,0,0,0,.64,1.27A3.15,3.15,0,0,1,.78,14.3a2.56,2.56,0,0,1,.4-1.09,2.38,2.38,0,0,1,.87-.76,2.8,2.8,0,0,1,.72-.26L14.65,13,6.11,12a15.57,15.57,0,0,1,5.05-1.18A17.71,17.71,0,0,1,18,12l.4.17.41.19-.3.28a1.07,1.07,0,0,0-.37-.25c-.38-.16-1-.15-1.11.07s0,.34.17.46A1.18,1.18,0,0,0,18.3,13a29.29,29.29,0,0,1,4.17,0,30.21,30.21,0,0,1,3.89.57,4,4,0,0,0-2,.56,2.7,2.7,0,0,0-1.06,1.13,32.43,32.43,0,0,0-3.35-1.05A37.75,37.75,0,0,0,7,13.24l10.14,1,6.19,1.74A3.11,3.11,0,0,1,25,14.24a4.69,4.69,0,0,1,4.76,1A6.44,6.44,0,0,0,25.81,12.9Z" style="fill:#0b9373"/><path d="M29.9,15.35a6.44,6.44,0,0,0-4-2.32c-1.26-.17-4.5-.15-5.58-.46a6,6,0,0,1-1.29-.52v1a30.83,30.83,0,0,1,3.53.07,30.21,30.21,0,0,1,3.89.57,4,4,0,0,0-2,.56,2.7,2.7,0,0,0-1.06,1.13,32.43,32.43,0,0,0-3.35-1c-.35-.1-.69-.18-1-.25v.76l4.39,1.24a3.11,3.11,0,0,1,1.68-1.7A4.69,4.69,0,0,1,29.9,15.35Z" style="fill:#fff"/><path d="M1.6,15.46a3.89,3.89,0,0,1,1.1-1.29,3.08,3.08,0,0,1,1.63-.65,3,3,0,0,1,1.73.37A3.46,3.46,0,0,1,7.3,15.05a4.4,4.4,0,0,0-2.92-1,3.67,3.67,0,0,0-1.45.46A7.85,7.85,0,0,0,1.6,15.46Z" style="fill:#0b9373"/></svg>